<svg width="1600" height="405" viewBox="0 0 1600 405" fill="none" xmlns="http://www.w3.org/2000/svg">
<g clip-path="url(#clip0)">
<rect width="1600" height="405" fill="#0069FF"/>
<rect width="1600" height="405" fill="url(#paint0_linear)"/>
<g opacity="0.5">
<path d="M287.612 36.0376H323.65H355.458C357.667 36.0376 359.458 34.2467 359.458 32.0376V4C359.458 1.79086 357.667 0 355.458 0H323.65H287.612H251.575H219.766C217.557 0 215.766 1.79086 215.766 4V32.0376C215.766 34.2467 217.557 36.0376 219.766 36.0376H251.575H287.612Z" fill="#0069FF"/>
<path d="M539.416 36.0376H571.224C573.433 36.0376 575.224 34.2467 575.224 32.0376V4C575.224 1.79086 573.433 0 571.224 0H539.416H503.379H471.341C469.132 0 467.341 1.79086 467.341 4V32.0376C467.341 34.2467 469.132 36.0376 471.341 36.0376H503.379H539.416Z" fill="#0069FF"/>
<path d="M643.299 0H615.262C613.053 0 611.262 1.79086 611.262 4V32.0376C611.262 34.2467 613.053 36.0376 615.262 36.0376H643.299C645.508 36.0376 647.299 34.2467 647.299 32.0376V4C647.299 1.79086 645.508 0 643.299 0Z" fill="#0069FF"/>
<path d="M894.874 0H866.836C864.627 0 862.836 1.79086 862.836 4V32.0376C862.836 34.2467 864.627 36.0376 866.836 36.0376H894.874C897.083 36.0376 898.874 34.2467 898.874 32.0376V4C898.874 1.79086 897.083 0 894.874 0Z" fill="#0069FF"/>
<path d="M1110.64 36.0376C1112.85 36.0376 1114.64 34.2467 1114.64 32.0376V4C1114.64 1.79086 1112.85 0 1110.64 0H1078.6H1046.79C1044.59 0 1042.79 1.79086 1042.79 4V32.0376C1042.79 34.2467 1044.59 36.0376 1046.79 36.0376H1078.6H1110.64Z" fill="#0069FF"/>
<path d="M1186.49 0H1154.68C1152.47 0 1150.68 1.79086 1150.68 4V32.0376C1150.68 34.2467 1152.47 36.0376 1154.68 36.0376H1186.49H1218.52C1220.73 36.0376 1222.52 34.2467 1222.52 32.0376V4C1222.52 1.79086 1220.73 0 1218.52 0H1186.49Z" fill="#0069FF"/>
<path d="M143.921 75.8456C143.921 73.6365 145.712 71.8456 147.921 71.8456H175.729C177.938 71.8456 179.729 70.0548 179.729 67.8456V40.0376C179.729 37.8284 177.938 36.0376 175.729 36.0376H143.921H107.883H75.8456C73.6365 36.0376 71.8456 37.8284 71.8456 40.0376V67.8456C71.8456 70.0548 70.0548 71.8456 67.8456 71.8456H40.0376C37.8284 71.8456 36.0376 70.0548 36.0376 67.8456V40.0376C36.0376 37.8284 37.8284 36.0376 40.0376 36.0376H67.8456C70.0548 36.0376 71.8456 34.2467 71.8456 32.0376V4C71.8456 1.79086 70.0548 0 67.8456 0H36.0376H4C1.79086 0 0 1.79086 0 4V36.0376V71.8456V103.883C0 106.092 1.79086 107.883 4 107.883H32.0376C34.2467 107.883 36.0376 109.674 36.0376 111.883V139.921C36.0376 142.13 34.2467 143.921 32.0376 143.921H4C1.79086 143.921 0 145.712 0 147.921V175.729C0 177.938 1.79086 179.729 4 179.729H36.0376H67.8456C70.0548 179.729 71.8456 177.938 71.8456 175.729V147.921C71.8456 145.712 73.6365 143.921 75.8456 143.921H103.883C106.092 143.921 107.883 145.712 107.883 147.921V175.729C107.883 177.938 109.674 179.729 111.883 179.729H139.921C142.13 179.729 143.921 177.938 143.921 175.729V147.921C143.921 145.712 145.712 143.921 147.921 143.921H175.729C177.938 143.921 179.729 142.13 179.729 139.921V111.883C179.729 109.674 177.938 107.883 175.729 107.883H147.921C145.712 107.883 143.921 106.092 143.921 103.883V75.8456Z" fill="#0069FF"/>
<path d="M391.495 179.729H363.458C361.249 179.729 359.458 181.52 359.458 183.729V211.767C359.458 213.976 361.249 215.767 363.458 215.767H391.495C393.704 215.767 395.495 213.976 395.495 211.767V183.729C395.495 181.52 393.704 179.729 391.495 179.729Z" fill="#0069FF"/>
<path d="M934.911 215.767H966.719C968.929 215.767 970.719 213.976 970.719 211.767V183.729C970.719 181.52 968.929 179.729 966.719 179.729H934.911H902.874C900.665 179.729 898.874 181.52 898.874 183.729V211.767C898.874 213.976 900.665 215.767 902.874 215.767H934.911Z" fill="#0069FF"/>
<path d="M175.958 215.766H147.921C145.712 215.766 143.921 217.557 143.921 219.766V247.804C143.921 250.013 145.712 251.804 147.921 251.804H175.958C178.168 251.804 179.958 250.013 179.958 247.804V219.766C179.958 217.557 178.168 215.766 175.958 215.766Z" fill="#0069FF"/>
<path d="M499.379 251.574C501.588 251.574 503.379 249.784 503.379 247.574V219.766C503.379 217.557 501.588 215.766 499.379 215.766H467.341H435.533C433.324 215.766 431.533 217.557 431.533 219.766V247.574C431.533 249.784 433.324 251.574 435.533 251.574H467.341H499.379Z" fill="#0069FF"/>
<path d="M862.836 215.767H827.028H790.991H758.953C756.744 215.767 754.953 213.976 754.953 211.767V183.729C754.953 181.52 753.162 179.729 750.953 179.729H723.145C720.936 179.729 719.145 181.52 719.145 183.729V211.767C719.145 213.976 717.354 215.767 715.145 215.767H683.107H651.299C649.09 215.767 647.299 217.557 647.299 219.767V247.575C647.299 249.784 649.09 251.575 651.299 251.575H683.107H719.145H754.953H790.991H827.028H862.836H894.874C897.083 251.575 898.874 249.784 898.874 247.575V219.767C898.874 217.557 897.083 215.767 894.874 215.767H862.836Z" fill="#0069FF"/>
<path d="M535.416 251.574H507.379C505.169 251.574 503.379 253.365 503.379 255.574V283.612C503.379 285.821 505.169 287.612 507.379 287.612H535.416C537.625 287.612 539.416 285.821 539.416 283.612V255.574C539.416 253.365 537.625 251.574 535.416 251.574Z" fill="#0069FF"/>
<path d="M103.883 287.612H75.8456C73.6364 287.612 71.8456 289.403 71.8456 291.612V319.65C71.8456 321.859 73.6364 323.65 75.8456 323.65H103.883C106.092 323.65 107.883 321.859 107.883 319.65V291.612C107.883 289.403 106.092 287.612 103.883 287.612Z" fill="#0069FF"/>
<path d="M435.533 287.612C433.324 287.612 431.533 289.403 431.533 291.612V319.65C431.533 321.859 433.324 323.65 435.533 323.65H467.341H499.379C501.588 323.65 503.379 321.859 503.379 319.65V291.612C503.379 289.403 501.588 287.612 499.379 287.612H467.341H435.533Z" fill="#0069FF"/>
<path d="M786.991 323.65C789.2 323.65 790.991 321.859 790.991 319.65V291.612C790.991 289.403 789.2 287.612 786.991 287.612H754.953H723.145C720.936 287.612 719.145 289.403 719.145 291.612V319.65C719.145 321.859 720.936 323.65 723.145 323.65H754.953H786.991Z" fill="#0069FF"/>
<path d="M970.719 291.612C970.719 289.403 972.51 287.612 974.719 287.612H1002.76C1004.97 287.612 1006.76 285.821 1006.76 283.612V255.574C1006.76 253.365 1004.97 251.574 1002.76 251.574H970.719H934.911H902.874C900.665 251.574 898.874 253.365 898.874 255.574V283.612C898.874 285.821 900.665 287.612 902.874 287.612H930.911C933.12 287.612 934.911 289.403 934.911 291.612V319.65C934.911 321.859 936.702 323.65 938.911 323.65H966.719C968.929 323.65 970.719 321.859 970.719 319.65V291.612Z" fill="#0069FF"/>
<path d="M395.495 323.65H363.458C361.249 323.65 359.458 321.859 359.458 319.65V291.612C359.458 289.403 361.249 287.612 363.458 287.612H395.495H427.533C429.742 287.612 431.533 285.821 431.533 283.612V255.574C431.533 253.365 429.742 251.574 427.533 251.574H395.495H359.458H327.65C325.441 251.574 323.65 249.784 323.65 247.574V219.766C323.65 217.557 321.859 215.766 319.65 215.766H287.612H251.575H219.767C217.557 215.766 215.767 217.557 215.767 219.766V247.574C215.767 249.784 217.557 251.574 219.767 251.574H251.575H283.612C285.821 251.574 287.612 253.365 287.612 255.574V283.612C287.612 285.821 289.403 287.612 291.612 287.612H319.65C321.859 287.612 323.65 289.403 323.65 291.612V319.65C323.65 321.859 321.859 323.65 319.65 323.65H291.612C289.403 323.65 287.612 321.859 287.612 319.65V291.612C287.612 289.403 285.821 287.612 283.612 287.612H251.575H215.767H179.729H147.921C145.712 287.612 143.921 289.403 143.921 291.612V319.65C143.921 321.859 145.712 323.65 147.921 323.65H179.729H215.767H247.575C249.784 323.65 251.575 325.44 251.575 327.65V355.458C251.575 357.667 253.365 359.458 255.575 359.458H283.612C285.821 359.458 287.612 361.249 287.612 363.458V391.495C287.612 393.704 289.403 395.495 291.612 395.495H319.65C321.859 395.495 323.65 393.704 323.65 391.495V363.458C323.65 361.249 325.441 359.458 327.65 359.458H359.458H395.495H427.533C429.742 359.458 431.533 357.667 431.533 355.458V327.65C431.533 325.44 429.742 323.65 427.533 323.65H395.495Z" fill="#0069FF"/>
<path d="M898.874 359.458H930.911C933.121 359.458 934.911 357.667 934.911 355.458V327.65C934.911 325.441 933.121 323.65 930.911 323.65H898.874H862.836H831.028C828.819 323.65 827.028 325.441 827.028 327.65V355.458C827.028 357.667 828.819 359.458 831.028 359.458H862.836H898.874Z" fill="#0069FF"/>
<path d="M247.804 359.458H219.766C217.557 359.458 215.766 361.249 215.766 363.458V391.495C215.766 393.704 217.557 395.495 219.766 395.495H247.804C250.013 395.495 251.804 393.704 251.804 391.495V363.458C251.804 361.249 250.013 359.458 247.804 359.458Z" fill="#0069FF"/>
<path d="M32.0376 359.458H4C1.79086 359.458 0 361.249 0 363.458V391.495C0 393.704 1.79086 395.495 4 395.495H32.0376C34.2467 395.495 36.0376 393.704 36.0376 391.495V363.458C36.0376 361.249 34.2467 359.458 32.0376 359.458Z" fill="#0069FF"/>
<path d="M175.958 359.458H147.921C145.712 359.458 143.921 361.249 143.921 363.458V391.495C143.921 393.704 145.712 395.495 147.921 395.495H175.958C178.168 395.495 179.958 393.704 179.958 391.495V363.458C179.958 361.249 178.168 359.458 175.958 359.458Z" fill="#0069FF"/>
<path d="M790.991 359.458H754.953H723.145C720.936 359.458 719.145 357.667 719.145 355.458V327.65C719.145 325.441 717.354 323.65 715.145 323.65H683.107H651.299C649.09 323.65 647.299 321.859 647.299 319.65V291.612C647.299 289.403 645.508 287.612 643.299 287.612H615.262C613.053 287.612 611.262 289.403 611.262 291.612V319.65C611.262 321.859 609.471 323.65 607.262 323.65H579.224C577.015 323.65 575.224 325.441 575.224 327.65V355.458C575.224 357.667 573.433 359.458 571.224 359.458H539.416H503.379H467.341H435.533C433.324 359.458 431.533 361.249 431.533 363.458V391.496C431.533 393.705 433.324 395.496 435.533 395.496H467.341H499.379C501.588 395.496 503.379 397.286 503.379 399.496V427.533C503.379 429.742 501.588 431.533 499.379 431.533H467.341H431.533H395.495H359.458H327.65C325.441 431.533 323.65 433.324 323.65 435.533V463.341C323.65 465.55 325.441 467.341 327.65 467.341H359.458H395.495H431.533H467.341H499.379C501.588 467.341 503.379 469.132 503.379 471.341V499.379C503.379 501.588 505.169 503.379 507.379 503.379H535.416C537.625 503.379 539.416 501.588 539.416 499.379V471.341C539.416 469.132 541.207 467.341 543.416 467.341H575.224H611.262H643.299C645.508 467.341 647.299 465.55 647.299 463.341V435.533C647.299 433.324 649.09 431.533 651.299 431.533H679.107C681.317 431.533 683.107 429.742 683.107 427.533V399.496C683.107 397.286 684.898 395.496 687.107 395.496H719.145H754.953H790.991H823.028C825.237 395.496 827.028 393.705 827.028 391.496V363.458C827.028 361.249 825.237 359.458 823.028 359.458H790.991Z" fill="#0069FF"/>
<path d="M2193.24 719.145V687.107C2193.24 684.898 2191.45 683.107 2189.24 683.107H2157.21H2125.17C2122.96 683.107 2121.17 681.317 2121.17 679.107V651.299C2121.17 649.09 2119.38 647.299 2117.17 647.299H2085.13H2049.09H2013.05H1981.02C1978.81 647.299 1977.02 645.508 1977.02 643.299V615.262C1977.02 613.053 1978.81 611.262 1981.02 611.262H2009.05C2011.26 611.262 2013.05 609.471 2013.05 607.262V579.224C2013.05 577.015 2011.26 575.224 2009.05 575.224H1977.02H1940.98H1904.94H1872.9C1870.7 575.224 1868.9 573.433 1868.9 571.224V543.416C1868.9 541.207 1867.11 539.416 1864.9 539.416H1832.87H1800.83C1798.62 539.416 1796.83 537.625 1796.83 535.416V507.379C1796.83 505.169 1798.62 503.379 1800.83 503.379H1832.87H1864.9C1867.11 503.379 1868.9 505.169 1868.9 507.379V535.416C1868.9 537.625 1870.7 539.416 1872.9 539.416H1904.94H1940.98H1977.02H2009.05C2011.26 539.416 2013.05 541.207 2013.05 543.416V571.454C2013.05 573.663 2014.85 575.454 2017.05 575.454H2045.09C2047.3 575.454 2049.09 577.245 2049.09 579.454V607.491C2049.09 609.7 2050.88 611.491 2053.09 611.491H2081.13C2083.34 611.491 2085.13 609.7 2085.13 607.491V579.454C2085.13 577.245 2086.92 575.454 2089.13 575.454H2117.17C2119.38 575.454 2121.17 573.663 2121.17 571.454V543.416C2121.17 541.207 2119.38 539.416 2117.17 539.416H2089.13C2086.92 539.416 2085.13 537.625 2085.13 535.416V507.379C2085.13 505.169 2083.34 503.379 2081.13 503.379H2053.09C2050.88 503.379 2049.09 501.588 2049.09 499.379V471.341C2049.09 469.132 2047.3 467.341 2045.09 467.341H2013.05H1977.02H1940.98H1908.94C1906.73 467.341 1904.94 465.55 1904.94 463.341V435.533C1904.94 433.324 1906.73 431.533 1908.94 431.533H1940.98H1977.02H2013.05H2045.09C2047.3 431.533 2049.09 433.324 2049.09 435.533V463.57C2049.09 465.78 2050.88 467.57 2053.09 467.57H2085.13H2121.17H2153.21C2155.41 467.57 2157.21 469.361 2157.21 471.57V499.608C2157.21 501.817 2155.41 503.608 2153.21 503.608H2125.17C2122.96 503.608 2121.17 505.399 2121.17 507.608V535.416C2121.17 537.625 2122.96 539.416 2125.17 539.416H2157.21H2189.24C2191.45 539.416 2193.24 541.207 2193.24 543.416V571.454C2193.24 573.663 2195.03 575.454 2197.24 575.454H2225.28C2227.49 575.454 2229.28 573.663 2229.28 571.454V543.416C2229.28 541.207 2231.07 539.416 2233.28 539.416H2261.32C2263.53 539.416 2265.32 537.625 2265.32 535.416V507.379C2265.32 505.169 2263.53 503.379 2261.32 503.379H2233.28C2231.07 503.379 2229.28 501.588 2229.28 499.379V471.341C2229.28 469.132 2231.07 467.341 2233.28 467.341H2261.32C2263.53 467.341 2265.32 465.55 2265.32 463.341V435.533C2265.32 433.324 2263.53 431.533 2261.32 431.533H2229.28H2193.24H2161.21C2159 431.533 2157.21 429.742 2157.21 427.533V399.495C2157.21 397.286 2155.41 395.495 2153.21 395.495H2121.17H2085.13H2053.09C2050.88 395.495 2049.09 393.704 2049.09 391.495V363.458C2049.09 361.249 2047.3 359.458 2045.09 359.458H2017.05C2014.85 359.458 2013.05 357.667 2013.05 355.458V327.65C2013.05 325.441 2014.85 323.65 2017.05 323.65H2049.09H2085.13H2117.17C2119.38 323.65 2121.17 325.441 2121.17 327.65V355.687C2121.17 357.896 2122.96 359.687 2125.17 359.687H2153.21C2155.41 359.687 2157.21 357.896 2157.21 355.687V327.65C2157.21 325.441 2159 323.65 2161.21 323.65H2193.24H2229.28H2261.32C2263.53 323.65 2265.32 321.859 2265.32 319.65V291.612C2265.32 289.403 2263.53 287.612 2261.32 287.612H2229.28H2197.24C2195.03 287.612 2193.24 285.821 2193.24 283.612V255.574C2193.24 253.365 2195.03 251.574 2197.24 251.574H2229.28H2261.32C2263.53 251.574 2265.32 249.784 2265.32 247.574V219.766C2265.32 217.557 2267.11 215.766 2269.32 215.766H2297.36C2299.56 215.766 2301.36 213.976 2301.36 211.766V183.729C2301.36 181.52 2299.56 179.729 2297.36 179.729H2265.32H2229.28H2197.24C2195.03 179.729 2193.24 181.52 2193.24 183.729V211.766C2193.24 213.976 2191.45 215.766 2189.24 215.766H2161.21C2159 215.766 2157.21 217.557 2157.21 219.766V247.804C2157.21 250.013 2155.41 251.804 2153.21 251.804H2121.17H2085.13H2049.09H2017.05C2014.85 251.804 2013.05 250.013 2013.05 247.804V219.766C2013.05 217.557 2014.85 215.766 2017.05 215.766H2049.09H2085.13H2117.17C2119.38 215.766 2121.17 213.976 2121.17 211.766V183.729C2121.17 181.52 2122.96 179.729 2125.17 179.729H2157.21H2189.24C2191.45 179.729 2193.24 177.938 2193.24 175.729V147.921C2193.24 145.712 2191.45 143.921 2189.24 143.921H2157.21H2125.17C2122.96 143.921 2121.17 142.13 2121.17 139.921V111.883C2121.17 109.674 2122.96 107.883 2125.17 107.883H2157.21H2189.24C2191.45 107.883 2193.24 109.674 2193.24 111.883V139.921C2193.24 142.13 2195.03 143.921 2197.24 143.921H2229.28H2261.32C2263.53 143.921 2265.32 142.13 2265.32 139.921V111.883C2265.32 109.674 2267.11 107.883 2269.32 107.883H2301.36H2333.39C2335.6 107.883 2337.39 109.674 2337.39 111.883V139.921C2337.39 142.13 2335.6 143.921 2333.39 143.921H2305.36C2303.15 143.921 2301.36 145.712 2301.36 147.921V175.958C2301.36 178.168 2303.15 179.958 2305.36 179.958H2337.39H2373.43H2405.47C2407.68 179.958 2409.47 181.749 2409.47 183.958V211.766C2409.47 213.976 2411.26 215.766 2413.47 215.766H2445.51H2477.54C2479.75 215.766 2481.54 213.976 2481.54 211.766V183.729C2481.54 181.52 2483.33 179.729 2485.54 179.729H2517.58H2549.62C2551.83 179.729 2553.62 177.938 2553.62 175.729V147.921C2553.62 145.712 2555.41 143.921 2557.62 143.921H2585.66C2587.87 143.921 2589.66 145.712 2589.66 147.921V175.958C2589.66 178.168 2591.45 179.958 2593.66 179.958H2625.69H2657.73C2659.94 179.958 2661.73 178.168 2661.73 175.958V147.921C2661.73 145.712 2663.52 143.921 2665.73 143.921H2693.77C2695.98 143.921 2697.77 142.13 2697.77 139.921V111.883C2697.77 109.674 2695.98 107.883 2693.77 107.883H2665.73C2663.52 107.883 2661.73 106.092 2661.73 103.883V75.8456C2661.73 73.6365 2659.94 71.8456 2657.73 71.8456H2625.69H2593.66C2591.45 71.8456 2589.66 70.0548 2589.66 67.8456V40.0376C2589.66 37.8284 2587.87 36.0376 2585.66 36.0376H2553.62H2517.58H2485.54C2483.33 36.0376 2481.54 34.2467 2481.54 32.0376V4C2481.54 1.79086 2479.75 0 2477.54 0H2449.51C2447.3 0 2445.51 1.79086 2445.51 4V32.0376C2445.51 34.2467 2443.72 36.0376 2441.51 36.0376H2409.47H2377.43C2375.22 36.0376 2373.43 34.2467 2373.43 32.0376V4C2373.43 1.79086 2371.64 0 2369.43 0H2337.39H2301.36H2269.32C2267.11 0 2265.32 1.79086 2265.32 4V32.0376C2265.32 34.2467 2263.53 36.0376 2261.32 36.0376H2233.28C2231.07 36.0376 2229.28 34.2467 2229.28 32.0376V4C2229.28 1.79086 2227.49 0 2225.28 0H2197.24C2195.03 0 2193.24 1.79086 2193.24 4V32.0376C2193.24 34.2467 2191.45 36.0376 2189.24 36.0376H2161.21C2159 36.0376 2157.21 34.2467 2157.21 32.0376V4C2157.21 1.79086 2155.41 0 2153.21 0H2121.17H2085.13H2049.09H2017.05C2014.85 0 2013.05 1.79086 2013.05 4V32.0376C2013.05 34.2467 2011.26 36.0376 2009.05 36.0376H1981.02C1978.81 36.0376 1977.02 34.2467 1977.02 32.0376V4C1977.02 1.79086 1975.23 0 1973.02 0H1940.98H1904.94H1868.9H1832.87H1796.83H1764.79C1762.58 0 1760.79 1.79086 1760.79 4V32.0376C1760.79 34.2467 1759 36.0376 1756.79 36.0376H1724.75H1692.72C1690.51 36.0376 1688.72 37.8284 1688.72 40.0376V68.0752C1688.72 70.2843 1686.93 72.0752 1684.72 72.0752H1656.68C1654.47 72.0752 1652.68 70.2843 1652.68 68.0752V40.0376C1652.68 37.8284 1654.47 36.0376 1656.68 36.0376H1684.72C1686.93 36.0376 1688.72 34.2467 1688.72 32.0376V4C1688.72 1.79086 1686.93 0 1684.72 0H1652.68H1620.64C1618.43 0 1616.64 1.79086 1616.64 4V32.0376C1616.64 34.2467 1614.85 36.0376 1612.64 36.0376H1584.6C1582.39 36.0376 1580.6 34.2467 1580.6 32.0376V4C1580.6 1.79086 1578.81 0 1576.6 0H1544.57H1508.53H1472.49H1436.45H1400.42H1364.38H1328.34H1292.3H1260.27C1258.06 0 1256.27 1.79086 1256.27 4V32.0376C1256.27 34.2467 1254.47 36.0376 1252.27 36.0376H1224.23C1222.02 36.0376 1220.23 37.8284 1220.23 40.0376V68.0752C1220.23 70.2843 1218.44 72.0752 1216.23 72.0752H1184.19H1148.15H1112.12H1076.08H1044.04C1041.83 72.0752 1040.04 70.2843 1040.04 68.0752V40.0376C1040.04 37.8284 1038.25 36.0376 1036.04 36.0376H1004H971.965C969.756 36.0376 967.965 37.8284 967.965 40.0376V68.0752C967.965 70.2843 966.174 72.0752 963.965 72.0752H931.927H895.89H863.852C861.643 72.0752 859.852 70.2843 859.852 68.0752V40.0376C859.852 37.8284 858.061 36.0376 855.852 36.0376H827.815C825.605 36.0376 823.815 37.8284 823.815 40.0376V68.0752C823.815 70.2843 822.024 72.0752 819.815 72.0752H787.777H755.739C753.53 72.0752 751.739 70.2843 751.739 68.0752V40.0376C751.739 37.8284 753.53 36.0376 755.739 36.0376H787.777H819.815C822.024 36.0376 823.815 34.2467 823.815 32.0376V4C823.815 1.79086 822.024 0 819.815 0H787.777H751.739H715.702H683.664C681.455 0 679.664 1.79086 679.664 4V32.0376C679.664 34.2467 681.455 36.0376 683.664 36.0376H711.702C713.911 36.0376 715.702 37.8284 715.702 40.0376V68.0752C715.702 70.2843 713.911 72.0752 711.702 72.0752H683.664C681.455 72.0752 679.664 70.2843 679.664 68.0752V40.0376C679.664 37.8284 677.873 36.0376 675.664 36.0376H651.299C649.09 36.0376 647.299 37.8284 647.299 40.0376V68.0752C647.299 70.2843 645.508 72.0752 643.299 72.0752H611.262H575.224H539.416H503.378H471.341C469.132 72.0752 467.341 70.2843 467.341 68.0752V40.0376C467.341 37.8284 465.55 36.0376 463.341 36.0376H431.533H399.495C397.286 36.0376 395.495 37.8284 395.495 40.0376V68.0752C395.495 70.2843 393.704 72.0752 391.495 72.0752H359.458H323.65H287.612H251.574H215.766H183.729C181.52 72.0752 179.729 73.866 179.729 76.0752V103.883C179.729 106.092 181.52 107.883 183.729 107.883H211.766C213.975 107.883 215.766 109.674 215.766 111.883V139.921C215.766 142.13 217.557 143.921 219.766 143.921H251.804H287.842H319.65C321.859 143.921 323.65 142.13 323.65 139.921V111.883C323.65 109.674 325.44 107.883 327.65 107.883H359.687H395.725H427.533C429.742 107.883 431.533 109.674 431.533 111.883V139.921C431.533 142.13 429.742 143.921 427.533 143.921H399.495C397.286 143.921 395.495 145.712 395.495 147.921V175.958C395.495 178.168 397.286 179.958 399.495 179.958H431.533H467.57H503.608H539.416H575.454H611.491H647.299H683.337H715.374C717.584 179.958 719.374 178.168 719.374 175.958V147.921C719.374 145.712 717.584 143.921 715.374 143.921H683.337H647.299H611.262H579.224C577.015 143.921 575.224 142.13 575.224 139.921V111.883C575.224 109.674 577.015 107.883 579.224 107.883H611.262H647.299H683.337H719.374H751.412C753.621 107.883 755.412 109.674 755.412 111.883V139.921C755.412 142.13 757.203 143.921 759.412 143.921H787.45C789.659 143.921 791.45 145.712 791.45 147.921V175.958C791.45 178.168 793.24 179.958 795.45 179.958H827.487H863.525H895.562C897.771 179.958 899.562 178.168 899.562 175.958V147.921C899.562 145.712 897.771 143.921 895.562 143.921H863.525H831.487C829.278 143.921 827.487 142.13 827.487 139.921V111.883C827.487 109.674 829.278 107.883 831.487 107.883H863.525H895.562C897.771 107.883 899.562 109.674 899.562 111.883V139.921C899.562 142.13 901.353 143.921 903.562 143.921H935.6H967.638C969.847 143.921 971.638 142.13 971.638 139.921V111.883C971.638 109.674 973.428 107.883 975.638 107.883H1007.68H1039.71C1041.92 107.883 1043.71 109.674 1043.71 111.883V139.921C1043.71 142.13 1041.92 143.921 1039.71 143.921H1007.68H975.638C973.428 143.921 971.638 145.712 971.638 147.921V175.958C971.638 178.168 973.428 179.958 975.638 179.958H1007.68H1043.71H1075.75C1077.96 179.958 1079.75 178.168 1079.75 175.958V147.921C1079.75 145.712 1081.54 143.921 1083.75 143.921H1115.79H1147.83C1150.03 143.921 1151.83 142.13 1151.83 139.921V111.883C1151.83 109.674 1153.62 107.883 1155.83 107.883H1187.86H1219.9C1222.11 107.883 1223.9 109.674 1223.9 111.883V139.921C1223.9 142.13 1222.11 143.921 1219.9 143.921H1187.86H1155.83C1153.62 143.921 1151.83 145.712 1151.83 147.921V175.958C1151.83 178.168 1150.03 179.958 1147.83 179.958H1115.79H1083.75C1081.54 179.958 1079.75 181.749 1079.75 183.958V211.766C1079.75 213.976 1077.96 215.766 1075.75 215.766H1043.71H1011.68C1009.47 215.766 1007.68 217.557 1007.68 219.766V247.804C1007.68 250.013 1009.47 251.804 1011.68 251.804H1043.71H1079.75H1115.79H1147.83C1150.03 251.804 1151.83 253.595 1151.83 255.804V283.842C1151.83 286.051 1150.03 287.842 1147.83 287.842H1115.79H1079.75H1047.71C1045.5 287.842 1043.71 289.632 1043.71 291.842V319.65C1043.71 321.859 1041.92 323.65 1039.71 323.65H1007.68H975.638C973.428 323.65 971.638 325.441 971.638 327.65V355.687C971.638 357.896 969.847 359.687 967.638 359.687H939.6C937.391 359.687 935.6 361.478 935.6 363.687V391.725C935.6 393.934 933.809 395.725 931.6 395.725H899.562H863.525H831.487C829.278 395.725 827.487 397.516 827.487 399.725V427.533C827.487 429.742 825.696 431.533 823.487 431.533H795.45C793.24 431.533 791.45 433.324 791.45 435.533V463.57C791.45 465.78 789.659 467.57 787.45 467.57H755.412H719.374H687.337C685.128 467.57 683.337 469.361 683.337 471.57V499.608C683.337 501.817 681.546 503.608 679.337 503.608H647.299H611.262H579.224C577.015 503.608 575.224 505.399 575.224 507.608V535.416C575.224 537.625 577.015 539.416 579.224 539.416H611.262H647.299H683.337H719.374H751.412C753.621 539.416 755.412 537.625 755.412 535.416V507.379C755.412 505.169 757.203 503.379 759.412 503.379H791.45H827.487H863.525H899.562H935.6H971.638H1003.68C1005.88 503.379 1007.68 501.588 1007.68 499.379V471.341C1007.68 469.132 1005.88 467.341 1003.68 467.341H971.638H935.6H903.562C901.353 467.341 899.562 465.55 899.562 463.341V435.533C899.562 433.324 901.353 431.533 903.562 431.533H935.6H971.638H1007.68H1039.71C1041.92 431.533 1043.71 429.742 1043.71 427.533V399.495C1043.71 397.286 1045.5 395.495 1047.71 395.495H1079.75H1115.79H1151.83H1183.86C1186.07 395.495 1187.86 393.704 1187.86 391.495V363.458C1187.86 361.249 1189.65 359.458 1191.86 359.458H1223.9H1259.94H1295.98H1332.01H1364.05C1366.26 359.458 1368.05 361.249 1368.05 363.458V391.495C1368.05 393.704 1366.26 395.495 1364.05 395.495H1332.01H1295.98H1263.94C1261.73 395.495 1259.94 397.286 1259.94 399.495V427.533C1259.94 429.742 1258.15 431.533 1255.94 431.533H1223.9H1187.86H1155.83C1153.62 431.533 1151.83 433.324 1151.83 435.533V463.57C1151.83 465.78 1150.03 467.57 1147.83 467.57H1119.79C1117.58 467.57 1115.79 469.361 1115.79 471.57V499.608C1115.79 501.817 1114 503.608 1111.79 503.608H1079.75H1043.71H1011.68C1009.47 503.608 1007.68 505.399 1007.68 507.608V535.416C1007.68 537.625 1005.88 539.416 1003.68 539.416H971.638H939.6C937.391 539.416 935.6 541.207 935.6 543.416V571.454C935.6 573.663 933.809 575.454 931.6 575.454H899.562H867.525C865.316 575.454 863.525 577.245 863.525 579.454V607.491C863.525 609.7 861.734 611.491 859.525 611.491H831.487C829.278 611.491 827.487 613.282 827.487 615.491V643.299C827.487 645.508 829.278 647.299 831.487 647.299H863.525H899.562H931.6C933.809 647.299 935.6 645.508 935.6 643.299V615.262C935.6 613.053 937.391 611.262 939.6 611.262H971.638H1007.68H1043.71H1079.75H1111.79C1114 611.262 1115.79 609.471 1115.79 607.262V579.224C1115.79 577.015 1117.58 575.224 1119.79 575.224H1151.83H1183.86C1186.07 575.224 1187.86 573.433 1187.86 571.224V543.416C1187.86 541.207 1189.65 539.416 1191.86 539.416H1219.9C1222.11 539.416 1223.9 537.625 1223.9 535.416V507.379C1223.9 505.169 1225.69 503.379 1227.9 503.379H1255.94C1258.15 503.379 1259.94 501.588 1259.94 499.379V471.341C1259.94 469.132 1261.73 467.341 1263.94 467.341H1295.98H1332.01H1368.05H1400.09C1402.3 467.341 1404.09 465.55 1404.09 463.341V435.533C1404.09 433.324 1405.88 431.533 1408.09 431.533H1440.13H1476.16H1512.2H1530.11H1544.01C1546.22 431.533 1548.01 429.742 1548.01 427.533V417.629C1548.01 415.42 1549.8 413.629 1552.01 413.629H1565.91H1579.82C1582.03 413.629 1583.82 415.42 1583.82 417.629V427.533C1583.82 429.742 1582.03 431.533 1579.82 431.533H1565.91H1552.01C1549.8 431.533 1548.01 433.324 1548.01 435.533V445.437C1548.01 447.646 1546.22 449.437 1544.01 449.437H1530.11H1516.2C1513.99 449.437 1512.2 451.228 1512.2 453.437V463.341C1512.2 465.55 1510.41 467.341 1508.2 467.341H1476.16H1440.13H1408.09C1405.88 467.341 1404.09 469.132 1404.09 471.341V499.379C1404.09 501.588 1402.3 503.379 1400.09 503.379H1368.05H1332.01H1299.98C1297.77 503.379 1295.98 505.169 1295.98 507.379V535.416C1295.98 537.625 1294.18 539.416 1291.98 539.416H1259.94H1227.9C1225.69 539.416 1223.9 541.207 1223.9 543.416V571.454C1223.9 573.663 1222.11 575.454 1219.9 575.454H1191.86C1189.65 575.454 1187.86 577.245 1187.86 579.454V607.491C1187.86 609.7 1186.07 611.491 1183.86 611.491H1155.83C1153.62 611.491 1151.83 613.282 1151.83 615.491V643.299C1151.83 645.508 1150.03 647.299 1147.83 647.299H1115.79H1079.75H1043.71H1011.68C1009.47 647.299 1007.68 649.09 1007.68 651.299V679.337C1007.68 681.546 1005.88 683.337 1003.68 683.337H971.638H935.6H899.562H863.525H831.487C829.278 683.337 827.487 681.546 827.487 679.337V651.299C827.487 649.09 825.696 647.299 823.487 647.299H795.45C793.24 647.299 791.45 649.09 791.45 651.299V679.337C791.45 681.546 789.659 683.337 787.45 683.337H755.412H723.374C721.165 683.337 719.374 685.128 719.374 687.337V715.375C719.374 717.584 717.584 719.375 715.374 719.375H683.337H651.299C649.09 719.375 647.299 721.165 647.299 723.375V751.412C647.299 753.621 645.508 755.412 643.299 755.412H611.262H579.224C577.015 755.412 575.224 757.203 575.224 759.412V787.45C575.224 789.659 577.015 791.45 579.224 791.45H611.262H647.299H679.337C681.546 791.45 683.337 789.659 683.337 787.45V759.412C683.337 757.203 685.128 755.412 687.337 755.412H719.374H755.412H791.45H823.487C825.696 755.412 827.487 757.203 827.487 759.412V787.45C827.487 789.659 829.278 791.45 831.487 791.45H859.525C861.734 791.45 863.525 789.659 863.525 787.45V759.412C863.525 757.203 865.316 755.412 867.525 755.412H895.562C897.771 755.412 899.562 757.203 899.562 759.412V787.45C899.562 789.659 901.353 791.45 903.562 791.45H935.6H967.638C969.847 791.45 971.638 793.241 971.638 795.45V823.487C971.638 825.696 973.428 827.487 975.638 827.487H1007.68H1043.71H1079.75H1111.79C1114 827.487 1115.79 829.278 1115.79 831.487V859.525C1115.79 861.734 1117.58 863.525 1119.79 863.525H1151.83H1183.86C1186.07 863.525 1187.86 861.734 1187.86 859.525V831.487C1187.86 829.278 1189.65 827.487 1191.86 827.487H1223.9H1237.8C1240.01 827.487 1241.8 825.696 1241.8 823.487V813.583C1241.8 811.374 1243.6 809.583 1245.8 809.583H1259.71H1277.61H1295.52H1313.42H1327.32C1329.53 809.583 1331.32 811.374 1331.32 813.583V823.487C1331.32 825.696 1333.12 827.487 1335.32 827.487H1363.36C1365.57 827.487 1367.36 829.278 1367.36 831.487V859.525C1367.36 861.734 1365.57 863.525 1363.36 863.525H1331.32H1295.29H1259.25H1223.21H1191.17C1188.97 863.525 1187.17 865.316 1187.17 867.525V895.562C1187.17 897.772 1185.38 899.562 1183.17 899.562H1151.14H1115.1H1079.06H1047.02C1044.81 899.562 1043.02 901.353 1043.02 903.562V931.6C1043.02 933.809 1041.23 935.6 1039.02 935.6H1010.99C1008.78 935.6 1006.99 937.391 1006.99 939.6V967.638C1006.99 969.847 1005.2 971.638 1002.99 971.638H974.949C972.74 971.638 970.949 973.428 970.949 975.638V1003.68C970.949 1005.88 972.74 1007.68 974.949 1007.68H1006.99H1039.02C1041.23 1007.68 1043.02 1005.88 1043.02 1003.68V975.638C1043.02 973.428 1044.81 971.638 1047.02 971.638H1079.06H1115.1H1147.14C1149.35 971.638 1151.14 973.428 1151.14 975.638V1003.68C1151.14 1005.88 1152.93 1007.68 1155.14 1007.68H1183.17C1185.38 1007.68 1187.17 1005.88 1187.17 1003.68V975.638C1187.17 973.428 1188.97 971.638 1191.17 971.638H1223.21H1255.25C1257.46 971.638 1259.25 973.428 1259.25 975.638V1003.68C1259.25 1005.88 1257.46 1007.68 1255.25 1007.68H1227.21C1225 1007.68 1223.21 1009.47 1223.21 1011.68V1039.71C1223.21 1041.92 1225 1043.71 1227.21 1043.71H1255.25C1257.46 1043.71 1259.25 1045.5 1259.25 1047.71V1075.75C1259.25 1077.96 1261.04 1079.75 1263.25 1079.75H1291.29C1293.5 1079.75 1295.29 1077.96 1295.29 1075.75V1047.71C1295.29 1045.5 1297.08 1043.71 1299.29 1043.71H1327.32C1329.53 1043.71 1331.32 1041.92 1331.32 1039.71V1011.68C1331.32 1009.47 1333.12 1007.68 1335.32 1007.68H1363.36C1365.57 1007.68 1367.36 1005.88 1367.36 1003.68V975.638C1367.36 973.428 1369.15 971.638 1371.36 971.638H1403.4H1439.44H1471.48C1473.68 971.638 1475.48 973.428 1475.48 975.638V1003.68C1475.48 1005.88 1473.68 1007.68 1471.48 1007.68H1439.44H1403.4H1371.36C1369.15 1007.68 1367.36 1009.47 1367.36 1011.68V1039.71C1367.36 1041.92 1365.57 1043.71 1363.36 1043.71H1335.32C1333.12 1043.71 1331.32 1045.5 1331.32 1047.71V1075.75C1331.32 1077.96 1333.12 1079.75 1335.32 1079.75H1367.36H1399.4C1401.61 1079.75 1403.4 1081.54 1403.4 1083.75V1111.79C1403.4 1114 1401.61 1115.79 1399.4 1115.79H1367.36H1331.32H1295.29H1263.25C1261.04 1115.79 1259.25 1117.58 1259.25 1119.79V1147.83C1259.25 1150.03 1257.46 1151.83 1255.25 1151.83H1227.21C1225 1151.83 1223.21 1153.62 1223.21 1155.83V1183.86C1223.21 1186.07 1225 1187.86 1227.21 1187.86H1259.25H1291.29C1293.5 1187.86 1295.29 1186.07 1295.29 1183.86V1155.83C1295.29 1153.62 1297.08 1151.83 1299.29 1151.83H1327.32C1329.53 1151.83 1331.32 1153.62 1331.32 1155.83V1183.86C1331.32 1186.07 1333.12 1187.86 1335.32 1187.86H1363.36C1365.57 1187.86 1367.36 1186.07 1367.36 1183.86V1155.83C1367.36 1153.62 1369.15 1151.83 1371.36 1151.83H1403.4H1439.44H1475.48H1507.51C1509.72 1151.83 1511.51 1153.62 1511.51 1155.83V1183.86C1511.51 1186.07 1509.72 1187.86 1507.51 1187.86H1475.48H1439.44H1407.4C1405.19 1187.86 1403.4 1189.65 1403.4 1191.86V1219.9C1403.4 1222.11 1405.19 1223.9 1407.4 1223.9H1439.44H1475.48H1511.51H1547.55H1583.59H1615.63C1617.83 1223.9 1619.63 1225.69 1619.63 1227.9V1255.94C1619.63 1258.15 1617.83 1259.94 1615.63 1259.94H1583.59H1547.55H1511.51H1479.48C1477.27 1259.94 1475.48 1261.73 1475.48 1263.94V1291.98C1475.48 1294.19 1473.68 1295.98 1471.48 1295.98H1439.44H1403.4H1371.36C1369.15 1295.98 1367.36 1297.77 1367.36 1299.98V1328.01C1367.36 1330.22 1369.15 1332.01 1371.36 1332.01H1403.4H1439.44H1475.48H1511.51H1543.55C1545.76 1332.01 1547.55 1330.22 1547.55 1328.01V1299.98C1547.55 1297.77 1549.34 1295.98 1551.55 1295.98H1583.59H1619.63H1655.66H1687.7C1689.91 1295.98 1691.7 1294.19 1691.7 1291.98V1263.94C1691.7 1261.73 1689.91 1259.94 1687.7 1259.94H1659.66C1657.45 1259.94 1655.66 1258.15 1655.66 1255.94V1227.9C1655.66 1225.69 1657.45 1223.9 1659.66 1223.9H1687.7C1689.91 1223.9 1691.7 1225.69 1691.7 1227.9V1255.94C1691.7 1258.15 1693.49 1259.94 1695.7 1259.94H1727.74H1763.78H1795.81C1798.02 1259.94 1799.81 1258.15 1799.81 1255.94V1227.9C1799.81 1225.69 1801.6 1223.9 1803.81 1223.9H1835.85H1867.89C1870.1 1223.9 1871.89 1225.69 1871.89 1227.9V1255.94C1871.89 1258.15 1873.68 1259.94 1875.89 1259.94H1903.93C1906.14 1259.94 1907.93 1261.73 1907.93 1263.94V1291.98C1907.93 1294.19 1909.72 1295.98 1911.93 1295.98H1943.96H1980H2012.04C2014.25 1295.98 2016.04 1294.19 2016.04 1291.98V1263.94C2016.04 1261.73 2014.25 1259.94 2012.04 1259.94H1980H1947.96C1945.75 1259.94 1943.96 1258.15 1943.96 1255.94V1227.9C1943.96 1225.69 1945.75 1223.9 1947.96 1223.9H1976C1978.21 1223.9 1980 1222.11 1980 1219.9V1191.86C1980 1189.65 1981.79 1187.86 1984 1187.86H2012.04C2014.25 1187.86 2016.04 1186.07 2016.04 1183.86V1155.83C2016.04 1153.62 2014.25 1151.83 2012.04 1151.83H1980H1947.96C1945.75 1151.83 1943.96 1150.03 1943.96 1147.83V1119.79C1943.96 1117.58 1942.17 1115.79 1939.96 1115.79H1907.93H1875.89C1873.68 1115.79 1871.89 1114 1871.89 1111.79V1083.75C1871.89 1081.54 1873.68 1079.75 1875.89 1079.75H1907.93H1943.96H1980H2016.04H2048.08C2050.29 1079.75 2052.08 1077.96 2052.08 1075.75V1047.71C2052.08 1045.5 2053.87 1043.71 2056.08 1043.71H2088.11H2120.15C2122.36 1043.71 2124.15 1041.92 2124.15 1039.71V1011.68C2124.15 1009.47 2122.36 1007.68 2120.15 1007.68H2088.11H2052.08H2020.04C2017.83 1007.68 2016.04 1005.88 2016.04 1003.68V975.638C2016.04 973.428 2014.25 971.638 2012.04 971.638H1984C1981.79 971.638 1980 973.428 1980 975.638V1003.68C1980 1005.88 1978.21 1007.68 1976 1007.68H1947.96C1945.75 1007.68 1943.96 1005.88 1943.96 1003.68V975.638C1943.96 973.428 1942.17 971.638 1939.96 971.638H1907.93H1871.89H1835.85H1803.81C1801.6 971.638 1799.81 969.847 1799.81 967.638V939.6C1799.81 937.391 1801.6 935.6 1803.81 935.6H1835.85H1871.89H1907.93H1943.96H1980H2016.04H2052.08H2084.11C2086.32 935.6 2088.11 937.391 2088.11 939.6V967.638C2088.11 969.847 2089.91 971.638 2092.11 971.638H2124.15H2160.19H2192.23C2194.44 971.638 2196.23 969.847 2196.23 967.638V939.6C2196.23 937.391 2198.02 935.6 2200.23 935.6H2232.26H2268.3H2300.34C2302.55 935.6 2304.34 933.809 2304.34 931.6V903.562C2304.34 901.353 2302.55 899.562 2300.34 899.562H2268.3H2232.26H2196.23H2160.19H2128.15C2125.94 899.562 2124.15 897.772 2124.15 895.562V867.525C2124.15 865.316 2122.36 863.525 2120.15 863.525H2088.11H2052.08H2020.04C2017.83 863.525 2016.04 861.734 2016.04 859.525V831.487C2016.04 829.278 2017.83 827.487 2020.04 827.487H2052.08H2088.11H2120.15C2122.36 827.487 2124.15 829.278 2124.15 831.487V859.525C2124.15 861.734 2125.94 863.525 2128.15 863.525H2160.19H2192.23C2194.44 863.525 2196.23 861.734 2196.23 859.525V831.487C2196.23 829.278 2194.44 827.487 2192.23 827.487H2164.19C2161.98 827.487 2160.19 825.696 2160.19 823.487V795.45C2160.19 793.241 2158.4 791.45 2156.19 791.45H2128.15C2125.94 791.45 2124.15 789.659 2124.15 787.45V759.412C2124.15 757.203 2125.94 755.412 2128.15 755.412H2160.19H2192.23C2194.44 755.412 2196.23 757.203 2196.23 759.412V787.45C2196.23 789.659 2198.02 791.45 2200.23 791.45H2228.26C2230.47 791.45 2232.26 789.659 2232.26 787.45V759.412C2232.26 757.203 2234.06 755.412 2236.26 755.412H2264.3C2266.51 755.412 2268.3 753.621 2268.3 751.412V723.375C2268.3 721.165 2266.51 719.375 2264.3 719.375H2232.26H2193.47C2193.35 719.375 2193.24 719.272 2193.24 719.145ZM1887.73 858.836C1887.73 861.045 1885.94 862.836 1883.73 862.836H1873.82C1871.61 862.836 1869.82 861.045 1869.82 858.836V848.932C1869.82 846.723 1871.61 844.932 1873.82 844.932H1883.73C1885.94 844.932 1887.73 846.723 1887.73 848.932V858.836ZM1743.81 1110.64C1743.81 1112.85 1742.02 1114.64 1739.81 1114.64H1729.9C1727.69 1114.64 1725.9 1112.85 1725.9 1110.64V1100.74C1725.9 1098.53 1727.69 1096.74 1729.9 1096.74H1739.81C1742.02 1096.74 1743.81 1098.53 1743.81 1100.74V1110.64ZM1779.84 750.953C1779.84 753.162 1778.05 754.953 1775.84 754.953H1765.94C1763.73 754.953 1761.94 753.162 1761.94 750.953V741.049C1761.94 738.84 1763.73 737.049 1765.94 737.049H1775.84C1778.05 737.049 1779.84 738.84 1779.84 741.049V750.953ZM1600.11 643.299C1600.11 645.508 1598.32 647.299 1596.11 647.299H1586.21C1584 647.299 1582.21 645.508 1582.21 643.299V633.395C1582.21 631.186 1584 629.395 1586.21 629.395H1596.11C1598.32 629.395 1600.11 631.186 1600.11 633.395V643.299ZM1510.14 633.166C1510.14 630.957 1511.93 629.166 1514.14 629.166H1524.04C1526.25 629.166 1528.04 630.957 1528.04 633.166V643.07C1528.04 645.279 1526.25 647.07 1524.04 647.07H1514.14C1511.93 647.07 1510.14 645.279 1510.14 643.07V633.166ZM1671.96 535.416C1671.96 537.625 1670.17 539.416 1667.96 539.416H1658.06C1655.85 539.416 1654.06 537.625 1654.06 535.416V525.512C1654.06 523.303 1655.85 521.512 1658.06 521.512H1667.96C1670.17 521.512 1671.96 523.303 1671.96 525.512V535.416ZM1797.75 391.495C1797.75 393.704 1795.96 395.495 1793.75 395.495H1783.84C1781.63 395.495 1779.84 393.704 1779.84 391.495V381.591C1779.84 379.382 1781.63 377.591 1783.84 377.591H1793.75C1795.96 377.591 1797.75 379.382 1797.75 381.591V391.495ZM1743.81 377.477C1743.81 377.54 1743.86 377.591 1743.92 377.591H1757.71C1759.92 377.591 1761.71 379.382 1761.71 381.591V391.495C1761.71 393.704 1759.92 395.495 1757.71 395.495H1743.81H1725.9H1689.86H1657.83C1655.62 395.495 1653.83 393.704 1653.83 391.495V363.458C1653.83 361.249 1655.62 359.458 1657.83 359.458H1689.86H1721.9C1724.11 359.458 1725.9 361.249 1725.9 363.458V373.362C1725.9 375.571 1727.69 377.362 1729.9 377.362H1743.69C1743.75 377.362 1743.81 377.413 1743.81 377.477ZM1761.71 147.921C1761.71 145.712 1763.5 143.921 1765.71 143.921H1793.75C1795.96 143.921 1797.75 145.712 1797.75 147.921V175.958C1797.75 178.168 1795.96 179.958 1793.75 179.958H1765.71C1763.5 179.958 1761.71 178.168 1761.71 175.958V147.921ZM1438.29 255.574C1438.29 253.365 1440.08 251.574 1442.29 251.574H1470.33C1472.54 251.574 1474.33 253.365 1474.33 255.574V283.612C1474.33 285.821 1472.54 287.612 1470.33 287.612H1442.29C1440.08 287.612 1438.29 285.821 1438.29 283.612V255.574ZM1564.08 309.516C1564.08 307.307 1565.87 305.516 1568.08 305.516H1577.98C1580.19 305.516 1581.98 307.307 1581.98 309.516V319.42C1581.98 321.629 1580.19 323.42 1577.98 323.42H1568.08C1565.87 323.42 1564.08 321.629 1564.08 319.42V309.516ZM1366.21 255.574C1366.21 253.365 1368.01 251.574 1370.21 251.574H1398.25C1400.46 251.574 1402.25 253.365 1402.25 255.574V283.612C1402.25 285.821 1400.46 287.612 1398.25 287.612H1370.21C1368.01 287.612 1366.21 285.821 1366.21 283.612V255.574ZM1438.29 615.262C1438.29 613.053 1440.08 611.262 1442.29 611.262H1470.33C1472.54 611.262 1474.33 613.053 1474.33 615.262V625.166C1474.33 627.375 1476.12 629.166 1478.33 629.166H1488.23C1490.44 629.166 1492.23 630.957 1492.23 633.166V643.07C1492.23 645.279 1490.44 647.07 1488.23 647.07H1474.33H1442.29C1440.08 647.07 1438.29 645.279 1438.29 643.07V615.262ZM1488.23 827.028C1490.44 827.028 1492.23 828.819 1492.23 831.028V840.932C1492.23 843.141 1490.44 844.932 1488.23 844.932H1478.33C1476.12 844.932 1474.33 843.141 1474.33 840.932V831.028C1474.33 828.819 1476.12 827.028 1478.33 827.028H1488.23ZM1675.96 970.719C1673.75 970.719 1671.96 968.929 1671.96 966.719V956.815C1671.96 954.606 1673.75 952.815 1675.96 952.815H1685.86C1688.07 952.815 1689.86 954.606 1689.86 956.815V966.719C1689.86 968.929 1688.07 970.719 1685.86 970.719H1675.96ZM1815.65 848.932C1815.65 846.723 1817.44 844.932 1819.65 844.932H1829.56C1831.76 844.932 1833.56 846.723 1833.56 848.932V858.836C1833.56 861.045 1831.76 862.836 1829.56 862.836H1819.65C1817.44 862.836 1815.65 861.045 1815.65 858.836V848.932ZM1869.59 750.953C1869.59 753.162 1867.8 754.953 1865.59 754.953H1833.56H1819.65C1817.44 754.953 1815.65 753.162 1815.65 750.953V741.049C1815.65 738.84 1817.44 737.049 1819.65 737.049H1829.56C1831.76 737.049 1833.56 735.258 1833.56 733.049V723.145C1833.56 720.936 1835.35 719.145 1837.56 719.145H1865.59C1867.8 719.145 1869.59 720.936 1869.59 723.145V750.953ZM1937.67 611.262C1939.88 611.262 1941.67 613.053 1941.67 615.262V643.299C1941.67 645.508 1939.88 647.299 1937.67 647.299H1909.63C1907.42 647.299 1905.63 645.508 1905.63 643.299V615.262C1905.63 613.053 1907.42 611.262 1909.63 611.262H1937.67ZM1761.71 535.416C1761.71 537.625 1759.92 539.416 1757.71 539.416H1725.67H1707.77H1693.86C1691.66 539.416 1689.86 537.625 1689.86 535.416V525.512C1689.86 523.303 1691.66 521.512 1693.86 521.512H1707.77H1721.67C1723.88 521.512 1725.67 519.721 1725.67 517.512V507.608C1725.67 505.399 1727.46 503.608 1729.67 503.608H1757.71C1759.92 503.608 1761.71 505.399 1761.71 507.608V535.416ZM1977.48 355.458C1977.48 357.667 1975.69 359.458 1973.48 359.458H1945.44C1943.23 359.458 1941.44 357.667 1941.44 355.458V327.65C1941.44 325.441 1939.65 323.65 1937.44 323.65H1905.4H1869.36H1837.33C1835.12 323.65 1833.33 321.859 1833.33 319.65V291.612C1833.33 289.403 1831.54 287.612 1829.33 287.612H1797.29H1765.25C1763.04 287.612 1761.25 289.403 1761.25 291.612V319.65C1761.25 321.859 1759.46 323.65 1757.25 323.65H1725.21H1689.18H1653.14H1635.23H1617.33H1603.43C1601.22 323.65 1599.43 321.859 1599.43 319.65V309.746C1599.43 307.536 1601.22 305.746 1603.43 305.746H1617.33H1635.23H1649.14C1651.35 305.746 1653.14 303.955 1653.14 301.746V291.842C1653.14 289.632 1654.93 287.842 1657.14 287.842H1689.18H1725.21H1757.25C1759.46 287.842 1761.25 286.051 1761.25 283.842V255.804C1761.25 253.595 1763.04 251.804 1765.25 251.804H1797.29H1829.33C1831.54 251.804 1833.33 253.595 1833.33 255.804V283.842C1833.33 286.051 1835.12 287.842 1837.33 287.842H1869.36H1905.4H1937.44C1939.65 287.842 1941.44 289.632 1941.44 291.842V319.65C1941.44 321.859 1943.23 323.65 1945.44 323.65H1973.48C1975.69 323.65 1977.48 325.441 1977.48 327.65V355.458ZM1977.48 179.844C1977.48 179.78 1977.43 179.729 1977.36 179.729H1945.44C1943.23 179.729 1941.44 177.938 1941.44 175.729V147.921C1941.44 145.712 1939.65 143.921 1937.44 143.921H1909.4C1907.19 143.921 1905.4 145.712 1905.4 147.921V175.958C1905.4 178.168 1903.61 179.958 1901.4 179.958H1873.36C1871.15 179.958 1869.36 178.168 1869.36 175.958V147.921C1869.36 145.712 1871.15 143.921 1873.36 143.921H1901.4C1903.61 143.921 1905.4 142.13 1905.4 139.921V111.883C1905.4 109.674 1907.19 107.883 1909.4 107.883H1937.44C1939.65 107.883 1941.44 109.674 1941.44 111.883V139.921C1941.44 142.13 1943.23 143.921 1945.44 143.921H1977.48H2009.51C2011.72 143.921 2013.51 145.712 2013.51 147.921V175.958C2013.51 178.168 2011.72 179.958 2009.51 179.958H1977.59C1977.53 179.958 1977.48 179.907 1977.48 179.844ZM2085.36 175.729C2085.36 177.938 2083.57 179.729 2081.36 179.729H2053.32C2051.11 179.729 2049.32 177.938 2049.32 175.729V147.921C2049.32 145.712 2051.11 143.921 2053.32 143.921H2081.36C2083.57 143.921 2085.36 145.712 2085.36 147.921V175.729ZM2484.86 143.921C2482.65 143.921 2480.86 142.13 2480.86 139.921V111.883C2480.86 109.674 2482.65 107.883 2484.86 107.883H2512.89C2515.1 107.883 2516.89 109.674 2516.89 111.883V139.921C2516.89 142.13 2515.1 143.921 2512.89 143.921H2484.86ZM1474.1 36.0376H1506.14C1508.34 36.0376 1510.14 37.8284 1510.14 40.0376V68.0752C1510.14 70.2843 1511.93 72.0752 1514.14 72.0752H1542.17C1544.38 72.0752 1546.17 73.866 1546.17 76.0752V103.883C1546.17 106.092 1544.38 107.883 1542.17 107.883H1510.14H1478.1C1475.89 107.883 1474.1 106.092 1474.1 103.883V75.8456C1474.1 73.6365 1472.31 71.8456 1470.1 71.8456H1442.06C1439.85 71.8456 1438.06 70.0548 1438.06 67.8456V40.0376C1438.06 37.8284 1439.85 36.0376 1442.06 36.0376H1474.1ZM1258.33 75.8456C1258.33 73.6365 1260.12 71.8456 1262.33 71.8456H1290.37C1292.58 71.8456 1294.37 70.0548 1294.37 67.8456V40.0376C1294.37 37.8284 1296.16 36.0376 1298.37 36.0376H1330.41H1366.44H1398.48C1400.69 36.0376 1402.48 37.8284 1402.48 40.0376V68.0752C1402.48 70.2843 1400.69 72.0752 1398.48 72.0752H1366.44H1330.41H1298.37C1296.16 72.0752 1294.37 73.866 1294.37 76.0752V103.883C1294.37 106.092 1292.58 107.883 1290.37 107.883H1262.33C1260.12 107.883 1258.33 106.092 1258.33 103.883V75.8456ZM1186.49 255.574C1186.49 253.365 1188.28 251.574 1190.49 251.574H1222.52H1258.56H1290.6C1292.81 251.574 1294.6 253.365 1294.6 255.574V283.612C1294.6 285.821 1292.81 287.612 1290.6 287.612H1258.56H1222.52H1190.49C1188.28 287.612 1186.49 285.821 1186.49 283.612V255.574ZM1406.25 395.495C1404.04 395.495 1402.25 393.704 1402.25 391.495V363.458C1402.25 361.249 1404.04 359.458 1406.25 359.458H1434.29C1436.5 359.458 1438.29 361.249 1438.29 363.458V391.495C1438.29 393.704 1436.5 395.495 1434.29 395.495H1406.25ZM934.911 754.953V722.915C934.911 720.706 936.702 718.915 938.911 718.915H970.949H1006.99H1039.02C1041.23 718.915 1043.02 717.125 1043.02 714.915V686.878C1043.02 684.669 1044.81 682.878 1047.02 682.878H1079.06H1115.1H1151.14H1183.17C1185.38 682.878 1187.17 681.087 1187.17 678.878V651.299C1187.17 649.09 1188.97 647.299 1191.17 647.299H1223.21H1259.25H1291.29C1293.5 647.299 1295.29 645.508 1295.29 643.299V615.262C1295.29 613.053 1297.08 611.262 1299.29 611.262H1331.32H1367.36H1399.4C1401.61 611.262 1403.4 613.053 1403.4 615.262V643.299C1403.4 645.508 1401.61 647.299 1399.4 647.299H1367.36H1331.32H1299.29C1297.08 647.299 1295.29 649.09 1295.29 651.299V679.337C1295.29 681.546 1293.5 683.337 1291.29 683.337H1259.25H1223.21H1191.17C1188.97 683.337 1187.17 685.128 1187.17 687.337V715.375C1187.17 717.584 1185.38 719.375 1183.17 719.375H1151.14H1115.1H1079.06H1047.02C1044.81 719.375 1043.02 721.165 1043.02 723.375V751.412C1043.02 753.621 1041.23 755.412 1039.02 755.412H1006.99H970.949H935.37C935.117 755.412 934.911 755.207 934.911 754.953ZM1402.25 831.028C1402.25 828.819 1404.04 827.028 1406.25 827.028H1438.29H1452.19C1454.4 827.028 1456.19 828.819 1456.19 831.028V840.932C1456.19 843.141 1454.4 844.932 1452.19 844.932H1442.29C1440.08 844.932 1438.29 846.723 1438.29 848.932V858.836C1438.29 861.045 1436.5 862.836 1434.29 862.836H1406.25C1404.04 862.836 1402.25 861.045 1402.25 858.836V831.028ZM1510.14 974.719C1510.14 972.51 1511.93 970.719 1514.14 970.719H1546.17H1560.08C1562.29 970.719 1564.08 972.51 1564.08 974.719V984.624C1564.08 986.833 1562.29 988.624 1560.08 988.624H1550.17C1547.96 988.624 1546.17 990.414 1546.17 992.624V1002.53C1546.17 1004.74 1544.38 1006.53 1542.17 1006.53H1514.14C1511.93 1006.53 1510.14 1004.74 1510.14 1002.53V974.719ZM1442.29 1114.64C1440.08 1114.64 1438.29 1112.85 1438.29 1110.64V1082.6C1438.29 1080.39 1440.08 1078.6 1442.29 1078.6H1470.33C1472.54 1078.6 1474.33 1080.39 1474.33 1082.6V1110.64C1474.33 1112.85 1472.54 1114.64 1470.33 1114.64H1442.29ZM1581.98 1186.37C1581.98 1186.43 1581.93 1186.49 1581.87 1186.49H1549.94C1547.73 1186.49 1545.94 1184.7 1545.94 1182.49V1154.45C1545.94 1152.24 1547.73 1150.45 1549.94 1150.45H1577.98C1580.19 1150.45 1581.98 1152.24 1581.98 1154.45V1164.35C1581.98 1166.56 1583.77 1168.35 1585.98 1168.35H1595.89C1598.09 1168.35 1599.89 1170.14 1599.89 1172.35V1182.26C1599.89 1184.47 1598.09 1186.26 1595.89 1186.26H1582.1C1582.03 1186.26 1581.98 1186.31 1581.98 1186.37ZM1618.02 1172.58C1618.02 1170.37 1619.81 1168.58 1622.02 1168.58H1631.92C1634.13 1168.58 1635.92 1170.37 1635.92 1172.58V1182.49C1635.92 1184.7 1634.13 1186.49 1631.92 1186.49H1622.02C1619.81 1186.49 1618.02 1184.7 1618.02 1182.49V1172.58ZM1833.79 1110.64C1833.79 1112.85 1831.99 1114.64 1829.79 1114.64H1797.75H1783.84C1781.63 1114.64 1779.84 1112.85 1779.84 1110.64V1100.74C1779.84 1098.53 1781.63 1096.74 1783.84 1096.74H1793.75C1795.96 1096.74 1797.75 1094.95 1797.75 1092.74V1082.83C1797.75 1080.62 1799.54 1078.83 1801.75 1078.83H1829.79C1831.99 1078.83 1833.79 1080.62 1833.79 1082.83V1110.64ZM1761.71 966.719C1761.71 968.929 1759.92 970.719 1757.71 970.719H1725.67H1711.77C1709.56 970.719 1707.77 968.929 1707.77 966.719V956.815C1707.77 954.606 1709.56 952.815 1711.77 952.815H1721.67C1723.88 952.815 1725.67 951.025 1725.67 948.815V938.911C1725.67 936.702 1727.46 934.911 1729.67 934.911H1757.71C1759.92 934.911 1761.71 936.702 1761.71 938.911V966.719ZM1977.48 858.836C1977.48 861.045 1975.69 862.836 1973.48 862.836H1941.44H1923.53H1909.63C1907.42 862.836 1905.63 861.045 1905.63 858.836V848.932C1905.63 846.723 1907.42 844.932 1909.63 844.932H1923.53H1937.44C1939.65 844.932 1941.44 843.141 1941.44 840.932V831.028C1941.44 828.819 1943.23 827.028 1945.44 827.028H1973.48C1975.69 827.028 1977.48 828.819 1977.48 831.028V858.836ZM2085.36 786.991C2085.36 789.2 2083.57 790.991 2081.36 790.991H2049.32H2017.28C2015.08 790.991 2013.28 789.2 2013.28 786.991V758.953C2013.28 756.744 2011.49 754.953 2009.28 754.953H1977.25H1941.21H1909.17C1906.96 754.953 1905.17 753.162 1905.17 750.953V722.915C1905.17 720.706 1906.96 718.915 1909.17 718.915H1941.21H1977.25H2009.28C2011.49 718.915 2013.28 720.706 2013.28 722.915V750.953C2013.28 753.162 2015.08 754.953 2017.28 754.953H2049.32H2081.36C2083.57 754.953 2085.36 756.744 2085.36 758.953V786.991Z" fill="#0069FF"/>
</g>
</g>
<defs>
<linearGradient id="paint0_linear" x1="0" y1="0" x2="1012.42" y2="999.923" gradientUnits="userSpaceOnUse">
<stop stop-color="#0069FF"/>
<stop offset="1" stop-color="#0248FF"/>
</linearGradient>
<clipPath id="clip0">
<rect width="1600" height="405" fill="white"/>
</clipPath>
</defs>
</svg>
