<svg xmlns="http://www.w3.org/2000/svg" xmlns:xlink="http://www.w3.org/1999/xlink" fill-rule="evenodd" stroke-linejoin="round" stroke-miterlimit="2" viewBox="0 0 3200 900">
<style>
/* <![CDATA[ */

#wtr {
}

@keyframes water_move {
  0% {
    transform: translate(0px, 0px);
  }

  100% {
    transform: translate(-4352px, 0px);
  }
}

#a1, #a2, #a3, #a4, #a5, #a6, #a7, #a8, #a9, #a10 {
visibility: hidden;
animation-duration: 1s;
animation-iteration-count: infinite;
animation-timing-function: steps(1);
}

#b1, #b2, #b3, #b4 {
visibility: hidden;
animation-duration: 0.3s;
animation-iteration-count: infinite;
animation-timing-function: steps(1);
}

#c1, #c2, #c3, #c4, #c5, #c6, #c7, #c8 {
visibility: hidden;
animation-duration: .8s;
animation-iteration-count: infinite;
animation-timing-function: steps(1);
}

#d1, #d2, #d3, #d4, #d5, #d6, #d7, #d8, #d9, #d10, #d11, #d12, #d13, #d14, #d15, #d16 {
visibility: hidden;
animation-duration: 1.8s;
animation-iteration-count: infinite;
animation-timing-function: steps(1);
}

#e1, #e2, #e3, #e4, #e5, #e6, #e7, #e8, #e9, #e10, #e11, #e12, #e13, #e14, #e15, #e16 {
visibility: hidden;
animation-duration: 2s;
animation-iteration-count: infinite;
animation-timing-function: steps(1);
}

#j1, #j2, #j3, #j4, #j5, #j6, #j7, #j8 {
visibility: hidden;
animation-duration: 1.4s;
animation-iteration-count: infinite;
animation-timing-function: steps(1);
}

#k1, #k2, #k3, #k4, #k5, #k6, #k7, #k8, #k9, #k10, #k11 {
visibility: hidden;
animation-duration: 1s;
animation-iteration-count: infinite;
animation-timing-function: steps(1);
}

#big_fish {
  animation: bf_move 2s linear infinite;
}

#jellyfish {
  animation: bf_move 2.3s linear infinite;
}

@keyframes bf_move {
  0%, 100% {
    transform: translate(0px, 0px);
  }

  50% {
    transform: translate(0px, -10px);
  }
}

#small_fish {
  animation: sf_move 3s linear infinite;
}

@media only screen and (max-width: 1030px) {
    #small_fish {
      display: none;
    }
  }

@keyframes sf_move {
  0%, 100% {
    transform: translate(0px, 0px);
  }

  50% {
    transform: translate(0px, -6px);
  }
}

#bubble_set1 {
  animation: bubble_set 30s linear infinite;
}

#bubble_set2 {
  animation: bubble_set 30s 6s linear infinite;
}

#bubble_set3 {
  animation: bubble_set 20s 12s linear infinite;
}

@keyframes bubble_set {
  0% {
    transform: translate(0px, 0px);
  }

  100% {
    transform: translate(0px, -1130px);
  }
}

/* ]]> */
</style>
<defs>
<linearGradient id="lnr1" y2="0">
  <stop offset="0" stop-color="#0069ff"/>
  <stop offset="1" stop-color="#0248ff"/>
</linearGradient>
<clipPath id="clp">
  <rect width="3200" height="900" />
</clipPath>
<path id="water" fill="#0069ff" fill-opacity=".5" d="M2232.18 900c-2.211 0-3.486-1.791-3.486-4.002v-28.051a4.002 4.002 0 014.002-4.002h100.165a4 4 0 004.002-4.001v-28.052a4.002 4.002 0 00-4.002-4.002h-100.165a4.002 4.002 0 00-4.002 4.002v28.052a4 4 0 01-4.002 4.001h-95.38a4 4 0 01-4.002-4.001v-28.052a4.002 4.002 0 00-4.002-4.002h-100.165a4.002 4.002 0 00-4.002 4.002v28.052a4 4 0 004.002 4.001h100.165a4.002 4.002 0 014.002 4.002v28.051c0 2.211-1.47 4.002-3.682 4.002h-929.143c-2.211 0-4.666-1.791-4.666-4.002v-28.051a4.008 4.008 0 014.002-4.002h172.284a4 4 0 004.002-4.001v-28.052a4.002 4.002 0 00-4.002-4.002h-28.055a4.008 4.008 0 01-4.002-4.002v-9.909a4.002 4.002 0 00-4.003-4.002h-81.564a4.008 4.008 0 00-4.002 4.002v9.909a4.002 4.002 0 01-4.002 4.002h-45.965a4.002 4.002 0 00-4.003 4.002v28.052a4 4 0 01-4.002 4.001h-64.105a4 4 0 01-4.002-4.001v-28.052a4.002 4.002 0 00-4.002-4.002H976.172a4.002 4.002 0 01-4.002-4.002v-28.051a4.003 4.003 0 00-4.003-4.002h-64.111a4.002 4.002 0 01-4.002-4.002v-28.051a4.002 4.002 0 00-4.002-4.002H868a4.002 4.002 0 00-4.002 4.002v28.051a4.003 4.003 0 01-4.003 4.002h-28.053a4.002 4.002 0 01-4.002-4.002v-28.051a4.002 4.002 0 00-4.002-4.002H687.714a4.003 4.003 0 00-4.003 4.002v28.051a4.002 4.002 0 01-4.002 4.002H579.542a4.002 4.002 0 01-4.002-4.002v-28.051a4.002 4.002 0 014.002-4.002h64.11a4.002 4.002 0 004.002-4.002v-28.051a4.002 4.002 0 014.002-4.002h64.11a4.002 4.002 0 004.002-4.002v-28.051a4.002 4.002 0 014.002-4.002h64.111a4.002 4.002 0 004.002-4.002v-28.052a4.003 4.003 0 014.003-4.002h28.052a4.002 4.002 0 014.002 4.002v28.052a4.002 4.002 0 004.002 4.002h172.287a4.008 4.008 0 004.002-4.002v-28.052a4.002 4.002 0 014.002-4.002h136.225a4.008 4.008 0 004.002-4.002v-27.821a4.002 4.002 0 014.002-4.002h28.045a4.002 4.002 0 004.002-4.002v-28.051a4.002 4.002 0 014.003-4.002h28.055a4.002 4.002 0 004.002-4.002v-28.051a4.002 4.002 0 014.002-4.002h64.115a4.008 4.008 0 004.002-4.002v-28.051a4.001 4.001 0 014.003-4.002h100.164a4.002 4.002 0 004.002-4.002V471.57a4 4 0 014.002-4.001h100.165a4.002 4.002 0 004.002-4.002v-9.909a4.002 4.002 0 014.002-4.002h27.826a4.002 4.002 0 004.002-4.002v-9.909a4.002 4.002 0 014.002-4.002h27.825a4.002 4.002 0 004.002-4.002v-9.909a4.002 4.002 0 00-4.002-4.002h-27.825a4.002 4.002 0 00-4.002 4.002v9.909a4.002 4.002 0 01-4.002 4.002h-135.995a4.002 4.002 0 00-4.002 4.002v27.822a4.002 4.002 0 01-4.002 4.002h-136.224a4 4 0 00-4.002 4.001v28.052a4.002 4.002 0 01-4.002 4.002h-28.056a4.001 4.001 0 00-4.002 4.002v28.051a4.002 4.002 0 01-4.002 4.002h-28.055a4.002 4.002 0 00-4.003 4.002v27.821a4.002 4.002 0 01-4.002 4.002h-64.105a4.002 4.002 0 00-4.002 4.002v28.052a4.002 4.002 0 01-4.002 4.002H940.114a4.002 4.002 0 00-4.002 4.002v28.05a4.002 4.002 0 01-4.002 4.002H831.942a4.002 4.002 0 01-4.002-4.002v-27.821a4.002 4.002 0 014.002-4.002h28.053a4.003 4.003 0 004.003-4.002v-28.051a4.002 4.002 0 014.002-4.002h64.11a4.002 4.002 0 004.002-4.002v-28.051a4.002 4.002 0 014.002-4.002h64.115a4.008 4.008 0 004.002-4.002v-27.822a4.002 4.002 0 014.002-4.002h100.165a4.002 4.002 0 004.002-4.002V471.8a4.002 4.002 0 014.002-4.002h28.056a4.007 4.007 0 004.002-4.002v-28.051a4.002 4.002 0 014.002-4.002h100.165a4.002 4.002 0 004.002-4.002V399.69a4.001 4.001 0 014.002-4.002h100.164a4.002 4.002 0 004.003-4.002v-28.051a4.002 4.002 0 00-4.003-4.002h-172.283a4.002 4.002 0 00-4.003 4.002v28.051a4.002 4.002 0 01-4.002 4.002h-136.224a4.001 4.001 0 00-4.002 4.002v28.051a4.002 4.002 0 01-4.002 4.002H904.056a4.002 4.002 0 00-4.002 4.002v27.822a4.002 4.002 0 004.002 4.002h100.173a4.007 4.007 0 014.002 4.001v28.052a4.008 4.008 0 01-4.002 4.002H759.828a4.002 4.002 0 00-4.002 4.002v28.051a4.002 4.002 0 01-4.002 4.002H579.542a4.002 4.002 0 01-4.002-4.002v-27.822a4.002 4.002 0 014.002-4.002h100.167a4.002 4.002 0 004.002-4.002V471.8a4.003 4.003 0 014.003-4.002h100.167a4.002 4.002 0 004.002-4.002v-28.051a4.003 4.003 0 014.003-4.002h28.052a4.002 4.002 0 004.002-4.002V399.92a4.002 4.002 0 014.002-4.002H932.11a4.002 4.002 0 004.002-4.002v-28.052a4.002 4.002 0 014.002-4.002h28.053a4.003 4.003 0 004.003-4.002v-28.05a4.001 4.001 0 014.002-4.002h64.107a4.002 4.002 0 004.002-4.002v-27.822a4.001 4.001 0 014.002-4.002h100.175a4.008 4.008 0 004.002-4.002v-28.051a4.007 4.007 0 00-4.002-4.002h-136.225a4.002 4.002 0 01-4.002-4.002v-28.052a4.002 4.002 0 014.002-4.002h64.105a4.001 4.001 0 004.003-4.002v-27.821a4 4 0 014.002-4.002h64.115a4.007 4.007 0 004.002-4.002v-28.051a4.002 4.002 0 014.002-4.002h64.105a4.002 4.002 0 004.002-4.002v-28.052a4 4 0 00-4.002-4.001h-64.105a4 4 0 00-4.002 4.001v28.052a4.008 4.008 0 01-4.002 4.002h-64.115a4.001 4.001 0 00-4.002 4.002v28.051a4.001 4.001 0 01-4.003 4.002H976.172a4.001 4.001 0 01-4.002-4.002v-28.051a4.002 4.002 0 014.002-4.002h64.107a4.002 4.002 0 004.002-4.002v-28.052a4 4 0 00-4.002-4.001h-64.107a4 4 0 00-4.002 4.001v28.052a4.003 4.003 0 01-4.003 4.002h-64.111a4.002 4.002 0 01-4.002-4.002v-28.052a4.001 4.001 0 00-4.002-4.001h-64.11a4.001 4.001 0 00-4.002 4.001v28.052a4.002 4.002 0 004.002 4.002h64.11a4.002 4.002 0 014.002 4.002v28.051a4.002 4.002 0 01-4.002 4.002H795.886a4.002 4.002 0 01-4.003-4.002v-28.051a4.002 4.002 0 00-4.002-4.002h-28.053a4.002 4.002 0 01-4.002-4.002v-28.052a4.001 4.001 0 00-4.002-4.001H579.542a4.001 4.001 0 00-4.002 4.001v28.052a4.002 4.002 0 004.002 4.002h136.224a4.002 4.002 0 014.002 4.002v28.051a4.001 4.001 0 01-4.002 4.002H399.715a4.002 4.002 0 01-4.002-4.002v-28.051a4.002 4.002 0 014.002-4.002h28.053a4.002 4.002 0 004.002-4.002v-28.052a4.001 4.001 0 00-4.002-4.001h-99.937a4.001 4.001 0 00-4.003 4.001v28.052a4.002 4.002 0 01-4.002 4.002h-99.938a4.002 4.002 0 01-4.002-4.002v-28.052a4.001 4.001 0 00-4.003-4.001h-28.052a4.002 4.002 0 01-4.002-4.002V76.112a4.002 4.002 0 014.002-4.002H391.71a4.002 4.002 0 004.003-4.002V40.057a4.002 4.002 0 014.002-4.002h63.881a4.002 4.002 0 014.002 4.002v28.051a4.002 4.002 0 004.002 4.002h172.052a4.002 4.002 0 004.002-4.002V40.057a4.002 4.002 0 014.002-4.002h24.378a4.002 4.002 0 014.002 4.002v28.051a4.002 4.002 0 004.003 4.002h28.053a4.002 4.002 0 004.002-4.002V40.057a4.002 4.002 0 00-4.002-4.002h-28.053a4.003 4.003 0 01-4.003-4.002V4.002A4.003 4.003 0 01684.039 0h136.225a4.002 4.002 0 014.002 4.002v28.051a4.002 4.002 0 01-4.002 4.002h-64.111a4.002 4.002 0 00-4.002 4.002v28.051a4.002 4.002 0 004.002 4.002h64.111a4.002 4.002 0 004.002-4.002V40.057a4.002 4.002 0 014.002-4.002h28.052a4.003 4.003 0 014.003 4.002v28.051a4.002 4.002 0 004.002 4.002h100.167a4.002 4.002 0 004.003-4.002V40.057a4.002 4.002 0 014.002-4.002h64.11a4.002 4.002 0 014.002 4.002v28.051a4.001 4.001 0 004.002 4.002h172.284a4.001 4.001 0 004.002-4.002V40.057a4.002 4.002 0 014.002-4.002h28.056a4.008 4.008 0 004.002-4.002V4.002A4.002 4.002 0 011260.959 0h316.502a4.002 4.002 0 014.003 4.002v28.051c0 2.21 1.79 4.002 4.002 4.002h28.055a4.002 4.002 0 004.002-4.002V4.002A4.002 4.002 0 011621.525 0h64.115a4.002 4.002 0 014.002 4.002v28.051a4.002 4.002 0 01-4.002 4.002h-28.055a4.002 4.002 0 00-4.002 4.002v28.051a4.001 4.001 0 004.002 4.002h28.055a4.001 4.001 0 004.002-4.002V40.057a4.002 4.002 0 014.003-4.002h64.105a4.002 4.002 0 004.002-4.002V4.002A4.002 4.002 0 011765.754 0h208.343a4.002 4.002 0 014.003 4.002v28.051a4.002 4.002 0 004.002 4.002h28.055a4.008 4.008 0 004.002-4.002V4.002A4.002 4.002 0 012018.161 0h137.403a4.002 4.002 0 014.003 4.002v28.051a4.002 4.002 0 004.002 4.002h26.866a4.002 4.002 0 004.002-4.002V4.002A4.002 4.002 0 012198.44 0h137.403a4.002 4.002 0 014.002 4.002v28.051a4.008 4.008 0 004.002 4.002h28.055a4.002 4.002 0 004.002-4.002V4.002A4.002 4.002 0 012379.907 0h208.343a4.002 4.002 0 014.002 4.002v28.051a4.002 4.002 0 004.002 4.002h64.105a4.002 4.002 0 014.003 4.002v28.051a4.001 4.001 0 004.002 4.002h28.055a4.001 4.001 0 004.002-4.002V40.057a4.002 4.002 0 00-4.002-4.002h-28.055a4.002 4.002 0 01-4.002-4.002V4.002A4.002 4.002 0 012668.364 0h64.115a4.002 4.002 0 014.002 4.002v28.051a4.002 4.002 0 004.002 4.002h28.055a4.001 4.001 0 004.002-4.002V4.002A4.002 4.002 0 012776.543 0h316.502a4.002 4.002 0 014.002 4.002v28.051a4.008 4.008 0 004.002 4.002h28.056a4.002 4.002 0 014.002 4.002v28.051a4.001 4.001 0 004.002 4.002h172.284a4.001 4.001 0 004.002-4.002V40.057a4.002 4.002 0 014.002-4.002h64.11a4.002 4.002 0 014.002 4.002v28.051a4.002 4.002 0 004.003 4.002h100.167a4.002 4.002 0 004.002-4.002V40.057a4.003 4.003 0 014.003-4.002h28.052a4.002 4.002 0 014.002 4.002v28.051a4.002 4.002 0 004.002 4.002h64.111a4.002 4.002 0 004.002-4.002V40.057a4.002 4.002 0 00-4.002-4.002h-64.111a4.002 4.002 0 01-4.002-4.002V4.002A4.002 4.002 0 013533.74 0h136.225a4.003 4.003 0 014.003 4.002v28.051a4.003 4.003 0 01-4.003 4.002h-28.053a4.002 4.002 0 00-4.002 4.002v28.051a4.002 4.002 0 004.002 4.002h28.053a4.002 4.002 0 004.003-4.002V40.057a4.002 4.002 0 014.002-4.002h24.378a4.002 4.002 0 014.002 4.002v28.051a4.002 4.002 0 004.002 4.002h172.052a4.002 4.002 0 004.002-4.002V40.057a4.002 4.002 0 014.002-4.002h63.881a4.002 4.002 0 014.002 4.002v28.051a4.002 4.002 0 004.003 4.002h207.879a4.002 4.002 0 014.002 4.002v27.822a4.002 4.002 0 01-4.002 4.002h-28.052a4.001 4.001 0 00-4.003 4.001v28.052a4.002 4.002 0 01-4.002 4.002h-99.938a4.002 4.002 0 01-4.002-4.002v-28.052a4.001 4.001 0 00-4.003-4.001h-99.937a4.001 4.001 0 00-4.002 4.001v28.052a4.002 4.002 0 004.002 4.002h28.053a4.002 4.002 0 014.002 4.002v28.051a4.002 4.002 0 01-4.002 4.002h-316.051a4.001 4.001 0 01-4.002-4.002v-28.051a4.002 4.002 0 014.002-4.002h136.224a4.002 4.002 0 004.002-4.002v-28.052a4.001 4.001 0 00-4.002-4.001H3602.18a4.001 4.001 0 00-4.002 4.001v28.052a4.002 4.002 0 01-4.002 4.002h-28.053a4.002 4.002 0 00-4.002 4.002v28.051a4.002 4.002 0 01-4.003 4.002h-100.166a4.002 4.002 0 01-4.002-4.002v-28.051a4.002 4.002 0 014.002-4.002h64.11a4.002 4.002 0 004.002-4.002v-28.052a4.001 4.001 0 00-4.002-4.001h-64.11a4.001 4.001 0 00-4.002 4.001v28.052a4.002 4.002 0 01-4.002 4.002h-64.111a4.003 4.003 0 01-4.003-4.002v-28.052a4 4 0 00-4.002-4.001h-64.107a4 4 0 00-4.002 4.001v28.052a4.002 4.002 0 004.002 4.002h64.107a4.002 4.002 0 014.002 4.002v28.051a4.001 4.001 0 01-4.002 4.002h-100.166a4.001 4.001 0 01-4.003-4.002v-28.051c0-2.21-1.79-4.002-4.002-4.002h-64.115a4.008 4.008 0 01-4.002-4.002v-28.052a4 4 0 00-4.002-4.001h-64.105a4 4 0 00-4.002 4.001v28.052a4.002 4.002 0 004.002 4.002h64.105a4.002 4.002 0 014.002 4.002v28.051a4.007 4.007 0 004.002 4.002h64.115a4 4 0 014.002 4.002v27.821a4.001 4.001 0 004.003 4.002h64.105a4.002 4.002 0 014.002 4.002v28.052a4.002 4.002 0 01-4.002 4.002h-136.225a4.007 4.007 0 00-4.002 4.002v28.051a4.008 4.008 0 004.002 4.002h100.175a4.001 4.001 0 014.002 4.002v27.822a4.002 4.002 0 004.002 4.002h64.107a4.001 4.001 0 014.002 4.002v28.05a4.003 4.003 0 004.003 4.002h28.053a4.002 4.002 0 014.002 4.002v28.052a4.002 4.002 0 004.002 4.002h100.168a4.002 4.002 0 014.002 4.002v27.821a4.002 4.002 0 004.002 4.002h28.052a4.003 4.003 0 014.003 4.002v28.051a4.002 4.002 0 004.002 4.002h100.167a4.003 4.003 0 014.003 4.002v28.051a4.002 4.002 0 004.002 4.002h100.167a4.002 4.002 0 014.002 4.002v27.822a4.002 4.002 0 01-4.002 4.002H3602.18a4.002 4.002 0 01-4.002-4.002v-28.051a4.002 4.002 0 00-4.002-4.002h-244.401a4.008 4.008 0 01-4.002-4.002V471.57a4.007 4.007 0 014.002-4.001h100.173a4.002 4.002 0 004.002-4.002v-27.822a4.002 4.002 0 00-4.002-4.002h-136.223a4.002 4.002 0 01-4.002-4.002V399.69a4.001 4.001 0 00-4.002-4.002h-136.224a4.002 4.002 0 01-4.002-4.002v-28.051a4.002 4.002 0 00-4.003-4.002h-172.283a4.002 4.002 0 00-4.003 4.002v28.051a4.002 4.002 0 004.003 4.002h100.164a4.001 4.001 0 014.002 4.002v28.051a4.002 4.002 0 004.002 4.002h100.165a4.002 4.002 0 014.002 4.002v28.051a4.007 4.007 0 004.002 4.002h28.056a4.002 4.002 0 014.002 4.002v28.051a4.002 4.002 0 004.002 4.002h100.165a4.002 4.002 0 014.002 4.002v27.822a4.008 4.008 0 004.002 4.002h64.115a4.002 4.002 0 014.002 4.002v28.051a4.002 4.002 0 004.002 4.002h64.11a4.002 4.002 0 014.002 4.002v28.051a4.003 4.003 0 004.003 4.002h28.053a4.002 4.002 0 014.002 4.002v27.821a4.002 4.002 0 01-4.002 4.002h-100.168a4.002 4.002 0 01-4.002-4.002v-28.05a4.002 4.002 0 00-4.002-4.002h-172.284a4.002 4.002 0 01-4.002-4.002v-28.052a4.002 4.002 0 00-4.002-4.002h-64.105a4.002 4.002 0 01-4.002-4.002v-27.821a4.002 4.002 0 00-4.003-4.002h-28.055a4.002 4.002 0 01-4.002-4.002v-28.051a4.001 4.001 0 00-4.002-4.002h-28.056a4.002 4.002 0 01-4.002-4.002V471.57a4 4 0 00-4.002-4.001h-136.224a4.002 4.002 0 01-4.002-4.002v-27.822a4.002 4.002 0 00-4.002-4.002H2809.15a4.002 4.002 0 01-4.002-4.002v-9.909a4.002 4.002 0 00-4.002-4.002h-27.825a4.002 4.002 0 00-4.002 4.002v9.909a4.002 4.002 0 004.002 4.002h27.825a4.002 4.002 0 014.002 4.002v9.909a4.002 4.002 0 004.002 4.002h27.826a4.002 4.002 0 014.002 4.002v9.909a4.002 4.002 0 004.002 4.002h100.165a4 4 0 014.002 4.001v28.052a4.002 4.002 0 004.002 4.002h100.164a4.001 4.001 0 014.003 4.002v28.051a4.008 4.008 0 004.002 4.002h64.115a4.002 4.002 0 014.002 4.002v28.051a4.002 4.002 0 004.002 4.002h28.055a4.002 4.002 0 014.003 4.002v28.051a4.002 4.002 0 004.002 4.002h28.045a4.002 4.002 0 014.002 4.002v27.821a4.008 4.008 0 004.002 4.002h136.225a4.002 4.002 0 014.002 4.002v28.052a4.008 4.008 0 004.002 4.002h172.287a4.002 4.002 0 004.002-4.002v-28.052a4.002 4.002 0 014.002-4.002h28.052a4.003 4.003 0 014.003 4.002v28.052a4.002 4.002 0 004.002 4.002h64.111a4.002 4.002 0 014.002 4.002v28.051a4.002 4.002 0 004.002 4.002h64.11a4.002 4.002 0 014.002 4.002v28.051a4.002 4.002 0 004.002 4.002h64.11a4.002 4.002 0 014.002 4.002v28.051a4.002 4.002 0 01-4.002 4.002h-100.167a4.002 4.002 0 01-4.002-4.002v-28.051a4.003 4.003 0 00-4.003-4.002h-136.224a4.002 4.002 0 00-4.002 4.002v28.051a4.002 4.002 0 01-4.002 4.002h-28.053a4.003 4.003 0 01-4.003-4.002v-28.051a4.002 4.002 0 00-4.002-4.002h-28.052a4.002 4.002 0 00-4.002 4.002v28.051a4.002 4.002 0 01-4.002 4.002h-64.111a4.003 4.003 0 00-4.003 4.002v28.051a4.002 4.002 0 01-4.002 4.002h-136.226a4.002 4.002 0 00-4.002 4.002v28.052a4 4 0 01-4.002 4.001h-64.105a4 4 0 01-4.002-4.001v-28.052a4.002 4.002 0 00-4.003-4.002h-45.965a4.002 4.002 0 01-4.002-4.002v-9.909a4.008 4.008 0 00-4.002-4.002h-81.564a4.002 4.002 0 00-4.003 4.002v9.909a4.008 4.008 0 01-4.002 4.002h-28.055a4.002 4.002 0 00-4.002 4.002v28.052a4 4 0 004.002 4.001h172.284a4.008 4.008 0 014.002 4.002v28.051c0 2.211-1.66 4.002-3.871 4.002H2232.18zM751.59 863.256h-28.053a4.002 4.002 0 00-4.002 4.002v28.052a4.002 4.002 0 004.002 4.002h28.053a4.003 4.003 0 004.003-4.002v-28.052a4.003 4.003 0 00-4.003-4.002zm2806.98 36.056h-99.938a4.002 4.002 0 01-4.002-4.002v-28.052a4.002 4.002 0 014.002-4.002h99.938a4.002 4.002 0 014.002 4.002v28.052a4.002 4.002 0 01-4.002 4.002zm-2763.15 0h99.938a4.002 4.002 0 004.002-4.002v-28.052a4.002 4.002 0 00-4.002-4.002H795.42a4.002 4.002 0 00-4.002 4.002v28.052a4.002 4.002 0 004.002 4.002zm2806.98-36.056h28.053a4.002 4.002 0 014.002 4.002v28.052a4.002 4.002 0 01-4.002 4.002H3602.4a4.003 4.003 0 01-4.003-4.002v-28.052a4.003 4.003 0 014.003-4.002zm-1623.85-4.002a4.002 4.002 0 01-4.002 4.002h-63.885a4.002 4.002 0 01-4.002-4.002v-9.909a4.002 4.002 0 014.002-4.002h27.825a4.001 4.001 0 004.002-4.002v-9.908a4.002 4.002 0 014.002-4.002h28.056a4.002 4.002 0 014.002 4.002v27.821zm972.428-27.821a4.002 4.002 0 00-4.002-4.002h-45.966a4.002 4.002 0 00-4.002 4.002v9.908a4.001 4.001 0 004.002 4.002h9.906a4.002 4.002 0 014.002 4.002v9.909a4.002 4.002 0 004.002 4.002h28.056a4.002 4.002 0 004.002-4.002v-27.821zm-575.544 27.821a4.002 4.002 0 004.002 4.002h63.885a4.002 4.002 0 004.002-4.002v-9.909a4.002 4.002 0 00-4.002-4.002h-27.825a4.001 4.001 0 01-4.002-4.002v-9.908a4.002 4.002 0 00-4.002-4.002h-28.056a4.002 4.002 0 00-4.002 4.002v27.821zm-486.683 0a4.002 4.002 0 01-4.002 4.002h-9.916a4.002 4.002 0 01-4.002-4.002v-9.909a4.002 4.002 0 014.002-4.002h9.916a4.002 4.002 0 014.002 4.002v9.909zm-72.119-9.909a4.002 4.002 0 014.002-4.002h9.915a4.008 4.008 0 014.002 4.002v9.909a4.008 4.008 0 01-4.002 4.002h-9.915a4.002 4.002 0 01-4.002-4.002v-9.909zm648.601 9.909a4.002 4.002 0 004.002 4.002h9.916a4.002 4.002 0 004.002-4.002v-9.909a4.002 4.002 0 00-4.002-4.002h-9.916a4.002 4.002 0 00-4.002 4.002v9.909zm-1062.23-27.821a4.002 4.002 0 014.002-4.002h45.966a4.002 4.002 0 014.002 4.002v9.908a4.001 4.001 0 01-4.002 4.002h-9.906a4.002 4.002 0 00-4.002 4.002v9.909a4.002 4.002 0 01-4.002 4.002h-28.056a4.002 4.002 0 01-4.002-4.002v-27.821zm1134.35 17.912a4.002 4.002 0 00-4.002-4.002h-9.915a4.008 4.008 0 00-4.002 4.002v9.909a4.008 4.008 0 004.002 4.002h9.915a4.002 4.002 0 004.002-4.002v-9.909zm327.599-21.914a4.002 4.002 0 00-4.002 4.002v9.908a4.001 4.001 0 004.002 4.002h9.905a4.001 4.001 0 004.002-4.002v-9.908a4.002 4.002 0 00-4.002-4.002h-9.905zm-1375.92 0a4.002 4.002 0 014.002 4.002v9.908a4.001 4.001 0 01-4.002 4.002h-9.905a4.001 4.001 0 01-4.002-4.002v-9.908a4.002 4.002 0 014.002-4.002h9.905zm-1021.45-32.054a4.002 4.002 0 00-4.002-4.002h-63.881a4.002 4.002 0 00-4.002 4.002v28.052a4.002 4.002 0 004.002 4.002h63.881a4.002 4.002 0 004.002-4.002v-28.052zm3418.81 0a4.002 4.002 0 014.002-4.002h63.881a4.002 4.002 0 014.002 4.002v28.052a4.002 4.002 0 01-4.002 4.002h-63.881a4.002 4.002 0 01-4.002-4.002v-28.052zm111.715-4.002h28.052a4.003 4.003 0 014.003 4.002v28.052a4.003 4.003 0 01-4.003 4.002h-28.052a4.002 4.002 0 01-4.002-4.002v-28.052a4.002 4.002 0 014.002-4.002zm-3642.24 0h-28.052a4.003 4.003 0 00-4.003 4.002v28.052a4.003 4.003 0 004.003 4.002h28.052a4.002 4.002 0 004.002-4.002v-28.052a4.002 4.002 0 00-4.002-4.002zm1804.48.46h33.573c2.21 0 3.498-1.792 3.498-4.002v-28.051a4.002 4.002 0 00-4.002-4.002h-32.85a4.002 4.002 0 00-4.002 4.002v28.051c0 2.21 1.573 4.002 3.783 4.002zm107.147-4.461a4.002 4.002 0 004.003 4.002h64.114a4.008 4.008 0 004.003-4.002v-28.051a4.001 4.001 0 014.002-4.002h100.164a4.002 4.002 0 004.003-4.002v-28.052a4.002 4.002 0 00-4.003-4.002h-100.164a4.002 4.002 0 00-4.002 4.002v28.052a4.008 4.008 0 01-4.003 4.002h-64.114a4.001 4.001 0 00-4.003 4.002v28.051zm-181.006 0a4.002 4.002 0 01-4.003 4.002h-64.114a4.008 4.008 0 01-4.003-4.002v-28.051a4.001 4.001 0 00-4.002-4.002h-100.164a4.002 4.002 0 01-4.003-4.002v-28.052a4.002 4.002 0 014.003-4.002h100.164a4.002 4.002 0 014.002 4.002v28.052a4.008 4.008 0 004.003 4.002h64.114a4.001 4.001 0 014.003 4.002v28.051zm1332.08-32.053v-32.054a4.002 4.002 0 00-4.002-4.002h-100.163a4 4 0 01-4.002-4.002v-28.051a4.002 4.002 0 00-4.003-4.002h-136.224a4 4 0 01-4.002-4.001v-27.593a4.008 4.008 0 00-4.002-4.002h-100.175a4.002 4.002 0 01-4.002-4.002v-28.05a4.001 4.001 0 00-4.002-4.002h-100.165a4.001 4.001 0 00-4.002 4.002v28.05a4.002 4.002 0 004.002 4.002h100.165a4.002 4.002 0 014.002 4.002v28.052a4.002 4.002 0 004.002 4.002h100.175a4.008 4.008 0 014.002 4.002v28.051a4.002 4.002 0 004.002 4.002h136.224a4.001 4.001 0 014.003 4.002v28.051c0 2.21 1.79 4.002 4.002 4.002h103.706a.459.459 0 00.459-.459zm-2483.16 0v-32.054a4.002 4.002 0 014.002-4.002h100.163a4 4 0 004.002-4.002v-28.051a4.002 4.002 0 014.003-4.002h136.224a4 4 0 004.002-4.001v-27.593a4.008 4.008 0 014.002-4.002h100.175a4.002 4.002 0 004.002-4.002v-28.05a4.001 4.001 0 014.002-4.002h100.165a4.001 4.001 0 014.002 4.002v28.05a4.002 4.002 0 01-4.002 4.002h-100.165a4.002 4.002 0 00-4.002 4.002v28.052a4.002 4.002 0 01-4.002 4.002h-100.175a4.008 4.008 0 00-4.002 4.002v28.051a4.002 4.002 0 01-4.002 4.002h-136.224a4.001 4.001 0 00-4.003 4.002v28.051c0 2.21-1.79 4.002-4.002 4.002H935.867a.459.459 0 01-.459-.459zm935.188-4.002a4.002 4.002 0 01-4.002 4.002h-45.965a4.002 4.002 0 01-4.002-4.002v-9.909a4.002 4.002 0 014.002-4.002h9.915a4.008 4.008 0 004.002-4.002v-9.909a4.002 4.002 0 014.003-4.002h28.045a4.002 4.002 0 014.002 4.002v27.822zm612.782 0a4.002 4.002 0 004.002 4.002h45.965a4.002 4.002 0 004.002-4.002v-9.909a4.002 4.002 0 00-4.002-4.002h-9.915a4.008 4.008 0 01-4.002-4.002v-9.909a4.002 4.002 0 00-4.003-4.002h-28.045a4.002 4.002 0 00-4.002 4.002v27.822zm1299.07-31.824h63.879a4.002 4.002 0 014.003 4.002v27.822a4.002 4.002 0 01-4.003 4.002h-63.879a4.003 4.003 0 01-4.003-4.002v-27.822a4.003 4.003 0 014.003-4.002zm-3210.93 0h-63.879a4.002 4.002 0 00-4.003 4.002v27.822a4.002 4.002 0 004.003 4.002h63.879a4.003 4.003 0 004.003-4.002v-27.822a4.003 4.003 0 00-4.003-4.002zm2001.65 31.824a4.002 4.002 0 004.002 4.002h9.905a4.002 4.002 0 004.003-4.002v-9.909a4.002 4.002 0 00-4.003-4.002h-9.905a4.002 4.002 0 00-4.002 4.002v9.909zm-792.38 0a4.002 4.002 0 01-4.002 4.002h-9.905a4.002 4.002 0 01-4.003-4.002v-9.909a4.002 4.002 0 014.003-4.002h9.905a4.002 4.002 0 014.002 4.002v9.909zm1965.6-67.879h28.053a4.002 4.002 0 014.002 4.002v28.051a4.002 4.002 0 01-4.002 4.002h-28.053a4.002 4.002 0 01-4.002-4.002v-28.051a4.002 4.002 0 014.002-4.002zm-3138.81 0h-28.053a4.002 4.002 0 00-4.002 4.002v28.051a4.002 4.002 0 004.002 4.002h28.053a4.002 4.002 0 004.002-4.002v-28.051a4.002 4.002 0 00-4.002-4.002zm1656.14-107.706h-65.293a4.002 4.002 0 01-4.003-4.002v-28.051a4.002 4.002 0 00-4.002-4.002h-26.866a4.002 4.002 0 00-4.002 4.002v28.051a4.002 4.002 0 01-4.003 4.002h-65.293l-.104.001a4.003 4.003 0 00-3.899 4.001v28.051c0 2.21-1.79 4.002-4.002 4.002h-28.055a4.002 4.002 0 01-4.002-4.002v-28.051a4.002 4.002 0 00-4.002-4.002h-28.046a4.002 4.002 0 01-4.002-4.002v-28.051a4.008 4.008 0 00-4.002-4.002h-136.234a4.008 4.008 0 01-4.002-4.002v-28.051a4.001 4.001 0 00-4.003-4.002h-64.104a4.001 4.001 0 00-4.003 4.002v28.051a4.002 4.002 0 004.003 4.002h64.104a4.002 4.002 0 014.003 4.002v27.821a4.008 4.008 0 004.002 4.002h136.234a4.008 4.008 0 014.002 4.002v28.052a4.008 4.008 0 01-4.002 4.002h-28.055a4.001 4.001 0 00-4.002 4.002v28.05a4.002 4.002 0 004.002 4.002h136.224a4.002 4.002 0 014.002 4.002v27.822a4.001 4.001 0 004.002 4.002h101.344a4.001 4.001 0 004.002-4.002v-27.822a4.002 4.002 0 014.002-4.002h136.224a4.002 4.002 0 004.002-4.002v-28.05a4.001 4.001 0 00-4.002-4.002h-28.055a4.008 4.008 0 01-4.002-4.002v-28.052a4.008 4.008 0 014.002-4.002h136.234a4.008 4.008 0 004.002-4.002v-27.821a4.002 4.002 0 014.003-4.002h64.104a4.002 4.002 0 004.003-4.002v-28.051a4.001 4.001 0 00-4.003-4.002h-64.104a4.001 4.001 0 00-4.003 4.002v28.051a4.008 4.008 0 01-4.002 4.002h-136.234a4.008 4.008 0 00-4.002 4.002v28.051a4.002 4.002 0 01-4.002 4.002h-28.046a4.002 4.002 0 00-4.002 4.002v28.051a4.002 4.002 0 01-4.002 4.002h-28.055a4.001 4.001 0 01-4.002-4.002v-28.051a4.002 4.002 0 00-4.003-4.002zm-1684.19 71.88h99.937a4.002 4.002 0 004.002-4.002v-28.05a4.002 4.002 0 014.003-4.002h28.053a4.002 4.002 0 004.002-4.002v-28.052a4.002 4.002 0 00-4.002-4.002h-63.881a4.002 4.002 0 00-4.002 4.002v28.052a4.002 4.002 0 01-4.002 4.002h-64.11a4.002 4.002 0 01-4.002-4.002v-28.052a4.003 4.003 0 00-4.003-4.002H543.7a4.002 4.002 0 00-4.002 4.002v28.052a4.002 4.002 0 01-4.002 4.002H363.644a4.002 4.002 0 00-4.002 4.002v28.05a4.002 4.002 0 004.002 4.002h99.938a4.002 4.002 0 014.002 4.002v27.822a4.002 4.002 0 004.002 4.002h99.937a4.003 4.003 0 004.003-4.002v-27.822a4.002 4.002 0 014.002-4.002zm3194.92 0h-99.937a4.002 4.002 0 01-4.002-4.002v-28.05a4.002 4.002 0 00-4.003-4.002h-28.053a4.002 4.002 0 01-4.002-4.002v-28.052a4.002 4.002 0 014.002-4.002h63.881a4.002 4.002 0 014.002 4.002v28.052a4.002 4.002 0 004.002 4.002h64.11a4.002 4.002 0 004.002-4.002v-28.052a4.003 4.003 0 014.003-4.002h27.823a4.002 4.002 0 014.002 4.002v28.052a4.002 4.002 0 004.002 4.002h172.052a4.002 4.002 0 014.002 4.002v28.05a4.002 4.002 0 01-4.002 4.002h-99.938a4.002 4.002 0 00-4.002 4.002v27.822a4.002 4.002 0 01-4.002 4.002h-99.937a4.003 4.003 0 01-4.003-4.002v-27.822a4.002 4.002 0 00-4.002-4.002zM176.038 611.56h-28.052a4.002 4.002 0 00-4.003 4.002v28.05a4.003 4.003 0 004.003 4.002h28.052a4.002 4.002 0 004.002-4.002v-28.05a4.001 4.001 0 00-4.002-4.002zm1762.67 0a4.001 4.001 0 014.002 4.002v28.05a4.002 4.002 0 01-4.002 4.002h-28.055a4.002 4.002 0 01-4.002-4.002v-28.05a4.001 4.001 0 014.002-4.002h28.055zm-1654.96 0h-28.053a4.001 4.001 0 00-4.002 4.002v28.05a4.002 4.002 0 004.002 4.002h28.053a4.002 4.002 0 004.002-4.002v-28.05a4.002 4.002 0 00-4.002-4.002zm3786.47 0h28.053a4.001 4.001 0 014.002 4.002v28.05a4.002 4.002 0 01-4.002 4.002h-28.053a4.002 4.002 0 01-4.002-4.002v-28.05a4.002 4.002 0 014.002-4.002zm107.713 0h28.052a4.002 4.002 0 014.003 4.002v28.05a4.003 4.003 0 01-4.003 4.002h-28.052a4.002 4.002 0 01-4.002-4.002v-28.05a4.001 4.001 0 014.002-4.002zm-1762.67 0a4.001 4.001 0 00-4.002 4.002v28.05a4.002 4.002 0 004.002 4.002h28.055a4.002 4.002 0 004.002-4.002v-28.05a4.001 4.001 0 00-4.002-4.002h-28.055zm337.744 32.052a4.002 4.002 0 004.002 4.002h9.905a4.002 4.002 0 004.003-4.002v-9.909a4.002 4.002 0 00-4.003-4.002h-9.905a4.002 4.002 0 00-4.002 4.002v9.909zm-1152.04 0a4.002 4.002 0 01-4.002 4.002h-9.905a4.002 4.002 0 01-4.003-4.002v-9.909a4.002 4.002 0 014.003-4.002h9.905a4.002 4.002 0 014.002 4.002v9.909zm-90.019-10.138a4.002 4.002 0 014.002-4.002h9.906a4.002 4.002 0 014.002 4.002v9.909a4.002 4.002 0 01-4.002 4.002h-9.906a4.002 4.002 0 01-4.002-4.002v-9.909zm-71.889-17.912a4.001 4.001 0 014.002-4.002h28.055a4.001 4.001 0 014.003 4.002v9.908a4.002 4.002 0 004.002 4.002h9.905a4.002 4.002 0 014.002 4.002v9.909a4.002 4.002 0 01-4.002 4.002h-45.965a4.002 4.002 0 01-4.002-4.002v-27.821zm1403.96 17.912a4.002 4.002 0 00-4.002-4.002h-9.906a4.002 4.002 0 00-4.002 4.002v9.909a4.002 4.002 0 004.002 4.002h9.906a4.002 4.002 0 004.002-4.002v-9.909zm71.889-17.912a4.001 4.001 0 00-4.002-4.002h-28.055a4.001 4.001 0 00-4.003 4.002v9.908a4.002 4.002 0 01-4.002 4.002h-9.905a4.002 4.002 0 00-4.002 4.002v9.909a4.002 4.002 0 004.002 4.002h45.965a4.002 4.002 0 004.002-4.002v-27.821zm-2559.05-40.058h-28.052a4.003 4.003 0 00-4.003 4.002v28.052a4.003 4.003 0 004.003 4.002h28.052a4.002 4.002 0 004.002-4.002v-28.052a4.002 4.002 0 00-4.002-4.002zm3642.24 0h28.052a4.003 4.003 0 014.003 4.002v28.052a4.003 4.003 0 01-4.003 4.002h-28.052a4.002 4.002 0 01-4.002-4.002v-28.052a4.002 4.002 0 014.002-4.002zm36.057-35.825h28.053a4.002 4.002 0 014.002 4.002v28.051a4.002 4.002 0 01-4.002 4.002h-28.053a4.002 4.002 0 01-4.002-4.002v-28.051a4.002 4.002 0 014.002-4.002zm-3714.35 0H291.75a4.002 4.002 0 00-4.002 4.002v28.051a4.002 4.002 0 004.002 4.002h28.053a4.002 4.002 0 004.002-4.002v-28.051a4.002 4.002 0 00-4.002-4.002zm2271.51-4.002a4.002 4.002 0 004.002 4.002h63.885a4.008 4.008 0 004.002-4.002v-9.909a4.008 4.008 0 00-4.002-4.002h-27.825a4.002 4.002 0 01-4.003-4.002v-9.909a4.002 4.002 0 00-4.002-4.002h-28.055a4.002 4.002 0 00-4.002 4.002v27.822zm89.799 0a4.002 4.002 0 004.002 4.002h9.905a4.002 4.002 0 004.002-4.002v-9.909a4.002 4.002 0 00-4.002-4.002h-9.905a4.002 4.002 0 00-4.002 4.002v9.909zm-918.459 0a4.002 4.002 0 01-4.002 4.002h-63.885a4.008 4.008 0 01-4.002-4.002v-9.909a4.008 4.008 0 014.002-4.002h27.825a4.002 4.002 0 004.003-4.002v-9.909a4.002 4.002 0 014.002-4.002h28.055a4.002 4.002 0 014.002 4.002v27.822zm-89.799 0a4.002 4.002 0 01-4.002 4.002h-9.905a4.002 4.002 0 01-4.002-4.002v-9.909a4.002 4.002 0 014.002-4.002h9.905a4.002 4.002 0 014.002 4.002v9.909zm446.632-32.053a4.002 4.002 0 004.002-4.002V471.57a4.002 4.002 0 00-2.665-3.772h-66.631a4.001 4.001 0 01-4.002-4.002v-28.051a4.002 4.002 0 00-4.002-4.002h-136.225a4.002 4.002 0 00-4.002 4.002v27.822a4.002 4.002 0 004.002 4.002h136.225a4 4 0 014.002 4.001v28.052a4.002 4.002 0 004.002 4.002h65.294zM823.456 359.633h-99.938a4.002 4.002 0 01-4.002-4.002V327.81a4.002 4.002 0 00-4.002-4.002h-63.881a4.002 4.002 0 01-4.002-4.002v-28.052a4.002 4.002 0 00-4.002-4.002h-28.053a4.002 4.002 0 00-4.002 4.002v28.052a4.002 4.002 0 01-4.002 4.002h-28.053a4.002 4.002 0 00-4.002 4.002v27.821a4.003 4.003 0 01-4.003 4.002H435.749a4.002 4.002 0 00-4.002 4.002v28.052a4.002 4.002 0 004.002 4.002h63.881c2.21 0 4.002 1.79 4.002 4.002v28.05a4.002 4.002 0 01-4.002 4.002H327.808a4.003 4.003 0 00-4.003 4.002v27.822a4.003 4.003 0 004.003 4.002H499.63a4.001 4.001 0 014.002 4.001v28.052a4.002 4.002 0 004.003 4.002h28.052a4.002 4.002 0 004.002-4.002V471.57a4.001 4.001 0 014.002-4.001h99.938a4.002 4.002 0 004.002-4.002v-27.822a4.002 4.002 0 014.002-4.002h27.823a4.002 4.002 0 004.002-4.002v-28.05a4.001 4.001 0 014.003-4.002h135.995a4.002 4.002 0 004.002-4.002v-28.052a4.002 4.002 0 00-4.002-4.002zm2707.05 0h99.938a4.002 4.002 0 004.002-4.002V327.81a4.002 4.002 0 014.002-4.002h63.881a4.002 4.002 0 004.002-4.002v-28.052a4.002 4.002 0 014.002-4.002h28.053a4.002 4.002 0 014.002 4.002v28.052a4.002 4.002 0 004.002 4.002h28.053a4.002 4.002 0 014.002 4.002v27.821a4.003 4.003 0 004.003 4.002h135.765a4.002 4.002 0 014.002 4.002v28.052a4.002 4.002 0 01-4.002 4.002h-63.881a4.001 4.001 0 00-4.002 4.002v28.05a4.002 4.002 0 004.002 4.002h171.822a4.003 4.003 0 014.003 4.002v27.822a4.003 4.003 0 01-4.003 4.002h-171.822a4.001 4.001 0 00-4.002 4.001v28.052a4.002 4.002 0 01-4.003 4.002h-28.052a4.002 4.002 0 01-4.002-4.002V471.57a4.001 4.001 0 00-4.002-4.001h-99.938a4.002 4.002 0 01-4.002-4.002v-27.822a4.002 4.002 0 00-4.002-4.002h-27.823a4.002 4.002 0 01-4.002-4.002v-28.05a4.001 4.001 0 00-4.003-4.002h-135.995a4.002 4.002 0 01-4.002-4.002v-28.052a4.002 4.002 0 014.002-4.002zm-1296.03 143.991h65.294a4.002 4.002 0 004.002-4.002V471.57a4 4 0 014.002-4.001h136.225a4.002 4.002 0 004.002-4.002v-27.822a4.002 4.002 0 00-4.002-4.002h-136.225a4.002 4.002 0 00-4.002 4.002v28.051a4.001 4.001 0 01-4.002 4.002h-66.631a4.002 4.002 0 00-2.665 3.772v28.052a4.002 4.002 0 004.002 4.002zm-2130.56-36.055H75.863a4.001 4.001 0 00-4.002 4.001v28.051a4.002 4.002 0 004.002 4.002h28.053a4.002 4.002 0 004.002-4.002V471.57a4.001 4.001 0 00-4.002-4.001zm151.774 0a4 4 0 00-4.002 4.001v28.051a4.001 4.001 0 004.002 4.002h64.11a4.002 4.002 0 004.002-4.002V471.57a4.001 4.001 0 00-4.002-4.001h-64.11zm3994.35 0h28.053a4.001 4.001 0 014.002 4.001v28.051a4.002 4.002 0 01-4.002 4.002h-28.053a4.002 4.002 0 01-4.002-4.002V471.57a4.001 4.001 0 014.002-4.001zm-151.774 0a4 4 0 014.002 4.001v28.051a4.001 4.001 0 01-4.002 4.002h-64.11a4.002 4.002 0 01-4.002-4.002V471.57a4.001 4.001 0 014.002-4.001h64.11zm-3850.58-35.826h-63.88a4.002 4.002 0 00-4.002 4.002v27.822a4.002 4.002 0 004.002 4.002h63.88a4.002 4.002 0 004.002-4.002v-27.822a4.002 4.002 0 00-4.002-4.002zm3858.58 0h63.88a4.002 4.002 0 014.002 4.002v27.822a4.002 4.002 0 01-4.002 4.002h-63.88a4.002 4.002 0 01-4.002-4.002v-27.822a4.002 4.002 0 014.002-4.002zm-1943.9-107.935a4.001 4.001 0 00-4.002 4.002v28.05a4.008 4.008 0 01-4.002 4.002h-28.056a4.002 4.002 0 01-4.002-4.002v-28.05a4.001 4.001 0 00-4.002-4.002h-100.165a4.001 4.001 0 00-4.002 4.002v27.821a4.002 4.002 0 004.002 4.002h28.046a4.002 4.002 0 014.002 4.002v28.051a4.002 4.002 0 004.002 4.002h100.175a4.007 4.007 0 014.002 4.002v28.051a4.002 4.002 0 004.002 4.002h29.224a4.002 4.002 0 004.002-4.002V399.69a4.007 4.007 0 014.002-4.002h100.175a4.002 4.002 0 004.002-4.002v-28.051a4.002 4.002 0 014.002-4.002h28.046a4.002 4.002 0 004.002-4.002V327.81a4.001 4.001 0 00-4.002-4.002h-100.165a4.001 4.001 0 00-4.002 4.002v28.05a4.002 4.002 0 01-4.002 4.002h-28.056a4.008 4.008 0 01-4.002-4.002v-28.05a4.001 4.001 0 00-4.002-4.002h-29.224zm-1914.45 35.825h-28.053a4.002 4.002 0 00-4.002 4.002v28.051a4.002 4.002 0 004.002 4.002h28.053a4.002 4.002 0 004.002-4.002v-28.051a4.002 4.002 0 00-4.002-4.002zm-71.885 0h-28.052a4.003 4.003 0 00-4.003 4.002v28.051a4.003 4.003 0 004.003 4.002h28.052a4.002 4.002 0 004.002-4.002v-28.051a4.002 4.002 0 00-4.002-4.002zm3930.01 0h28.053a4.002 4.002 0 014.002 4.002v28.051a4.002 4.002 0 01-4.002 4.002h-28.053a4.002 4.002 0 01-4.002-4.002v-28.051a4.002 4.002 0 014.002-4.002zm71.885 0h28.052a4.003 4.003 0 014.003 4.002v28.051a4.003 4.003 0 01-4.003 4.002h-28.052a4.002 4.002 0 01-4.002-4.002v-28.051a4.002 4.002 0 014.002-4.002zm143.999 0h28.053a4.002 4.002 0 014.002 4.002v28.051a4.002 4.002 0 01-4.002 4.002h-28.053a4.002 4.002 0 01-4.002-4.002v-28.051a4.002 4.002 0 014.002-4.002zm-3894.18-35.825h-64.11a4.002 4.002 0 01-4.002-4.002v-28.052a4.002 4.002 0 014.002-4.002h64.11a4.002 4.002 0 004.002-4.002v-28.052a4.002 4.002 0 00-4.002-4.002h-99.937a4.001 4.001 0 01-4.003-4.001v-27.822a4.002 4.002 0 00-4.002-4.002h-99.938a4.002 4.002 0 00-4.002 4.002v27.822a4 4 0 004.002 4.001h63.881a4.002 4.002 0 014.002 4.002v28.052a4.002 4.002 0 004.002 4.002h28.053a4.002 4.002 0 014.002 4.002v28.052a4.002 4.002 0 01-4.002 4.002H291.75a4.002 4.002 0 01-4.002-4.002v-28.052a4.002 4.002 0 00-4.002-4.002H147.981a4.003 4.003 0 00-4.003 4.002v28.052a4.003 4.003 0 004.003 4.002h99.708c2.21 0 4.002 1.79 4.002 4.002v27.821a4.002 4.002 0 004.002 4.002h28.053a4.002 4.002 0 014.002 4.002v28.051a4.002 4.002 0 004.002 4.002h28.053a4.002 4.002 0 004.002-4.002v-28.051a4.003 4.003 0 014.003-4.002h99.937a4.002 4.002 0 004.002-4.002V327.81a4.001 4.001 0 00-4.002-4.002zm3498.47 0h64.11a4.002 4.002 0 004.002-4.002v-28.052a4.002 4.002 0 00-4.002-4.002h-64.11a4.002 4.002 0 01-4.002-4.002v-28.052a4.002 4.002 0 014.002-4.002h99.937a4.001 4.001 0 004.003-4.001v-27.822a4.002 4.002 0 014.002-4.002h99.938a4.002 4.002 0 014.002 4.002v27.822a4 4 0 01-4.002 4.001h-63.881a4.002 4.002 0 00-4.002 4.002v28.052a4.002 4.002 0 01-4.002 4.002h-28.053a4.002 4.002 0 00-4.002 4.002v28.052a4.002 4.002 0 004.002 4.002h28.053a4.002 4.002 0 004.002-4.002v-28.052a4.002 4.002 0 014.002-4.002h135.765a4.003 4.003 0 014.003 4.002v28.052a4.003 4.003 0 01-4.003 4.002h-99.708a4.001 4.001 0 00-4.002 4.002v27.821a4.002 4.002 0 01-4.002 4.002h-28.053a4.002 4.002 0 00-4.002 4.002v28.051a4.002 4.002 0 01-4.002 4.002h-28.053a4.002 4.002 0 01-4.002-4.002v-28.051a4.003 4.003 0 00-4.003-4.002h-99.937a4.002 4.002 0 01-4.002-4.002V327.81a4.001 4.001 0 014.002-4.002zm-1316.99 53.853c0 .063-.05.114-.111.114h-13.797a4.002 4.002 0 00-4.002 4.002v9.909a4.002 4.002 0 004.002 4.002h99.934a4.002 4.002 0 004.003-4.002v-28.051a4.002 4.002 0 00-4.003-4.002h-64.105a4.002 4.002 0 00-4.002 4.002v9.909a4.002 4.002 0 01-4.002 4.002h-13.797c-.06 0-.12.051-.12.115zm-1202.22 18.027a4.002 4.002 0 01-4.002-4.002v-28.051a4.002 4.002 0 014.002-4.002h28.056a4.002 4.002 0 014.002 4.002v28.051a4.002 4.002 0 01-4.002 4.002h-28.056zm1148.25-4.002a4.002 4.002 0 004.002 4.002h9.916a4.002 4.002 0 004.002-4.002v-9.909a4.002 4.002 0 00-4.002-4.002h-9.916a4.002 4.002 0 00-4.002 4.002v9.909zM32.035 359.633H3.982a4.002 4.002 0 00-4.002 4.002v28.051a4.002 4.002 0 004.002 4.002h28.053a4.002 4.002 0 004.002-4.002v-28.051a4.002 4.002 0 00-4.002-4.002zm1712.7 18.028c0 .063.05.114.111.114h13.797a4.002 4.002 0 014.002 4.002v9.909a4.002 4.002 0 01-4.002 4.002h-99.934a4.002 4.002 0 01-4.003-4.002v-28.051a4.002 4.002 0 014.003-4.002h64.105a4.002 4.002 0 014.002 4.002v9.909a4.002 4.002 0 004.002 4.002h13.797c.06 0 .12.051.12.115zm53.97 14.025a4.002 4.002 0 01-4.002 4.002h-9.916a4.002 4.002 0 01-4.002-4.002v-9.909a4.002 4.002 0 014.002-4.002h9.916a4.002 4.002 0 014.002 4.002v9.909zm1148.25 4.002a4.002 4.002 0 004.002-4.002v-28.051a4.002 4.002 0 00-4.002-4.002h-28.056a4.002 4.002 0 00-4.002 4.002v28.051a4.002 4.002 0 004.002 4.002h28.056zm-2115.5-36.055h99.937a4.002 4.002 0 004.003-4.002V327.81a4.001 4.001 0 00-4.003-4.002h-99.937a4.002 4.002 0 00-4.002 4.002v27.821a4.002 4.002 0 004.002 4.002zm1147.08-4.002a4.002 4.002 0 01-4.002 4.002h-28.056a4.002 4.002 0 01-4.002-4.002V327.81a4.001 4.001 0 00-4.002-4.002h-100.165a4.002 4.002 0 01-4.002-4.002v-28.052a4.002 4.002 0 00-4.002-4.002h-64.115a4.002 4.002 0 00-4.002 4.002v28.052a4.002 4.002 0 01-4.002 4.002h-153.904a4.002 4.002 0 01-4.002-4.002v-9.909a4.002 4.002 0 014.002-4.002h45.735a4.002 4.002 0 004.002-4.002v-9.909a4.001 4.001 0 014.002-4.002h100.165a4.002 4.002 0 004.002-4.002v-28.051a4.001 4.001 0 014.002-4.002h64.115a4.001 4.001 0 014.002 4.002v28.051a4.002 4.002 0 004.002 4.002h100.165a4.001 4.001 0 014.002 4.002v27.822a4.002 4.002 0 004.002 4.002h28.056a4.001 4.001 0 014.002 4.002v27.821zm396.884 0a4.002 4.002 0 004.002 4.002h28.056a4.002 4.002 0 004.002-4.002V327.81a4.001 4.001 0 014.002-4.002h100.165a4.002 4.002 0 004.002-4.002v-28.052a4.002 4.002 0 014.002-4.002h64.115a4.002 4.002 0 014.002 4.002v28.052a4.002 4.002 0 004.002 4.002h153.904a4.002 4.002 0 004.002-4.002v-9.909a4.002 4.002 0 00-4.002-4.002h-45.735a4.002 4.002 0 01-4.002-4.002v-9.909a4.001 4.001 0 00-4.002-4.002h-100.165a4.002 4.002 0 01-4.002-4.002v-28.051a4.001 4.001 0 00-4.002-4.002h-64.115a4.001 4.001 0 00-4.002 4.002v28.051a4.002 4.002 0 01-4.002 4.002h-100.165a4.001 4.001 0 00-4.002 4.002v27.822a4.002 4.002 0 01-4.002 4.002h-28.056a4.001 4.001 0 00-4.002 4.002v27.821zm1147.08 4.002h-99.937a4.002 4.002 0 01-4.003-4.002V327.81a4.001 4.001 0 014.003-4.002h99.937a4.002 4.002 0 014.002 4.002v27.821a4.002 4.002 0 01-4.002 4.002zm-2551.27-67.879a4.002 4.002 0 014.002-4.002h28.057a4.002 4.002 0 004.002-4.002v-28.052a4.002 4.002 0 00-4.002-4.002h-99.941a4.002 4.002 0 00-4.002 4.002v28.052a4.002 4.002 0 004.002 4.002h28.052a4.002 4.002 0 014.003 4.002v28.052a4.002 4.002 0 004.002 4.002h27.823a4.002 4.002 0 004.002-4.002v-28.052zm2411.5 0a4.002 4.002 0 00-4.002-4.002h-28.057a4.002 4.002 0 01-4.002-4.002v-28.052a4.002 4.002 0 014.002-4.002h99.941a4.002 4.002 0 014.002 4.002v28.052a4.002 4.002 0 01-4.002 4.002h-28.052a4.002 4.002 0 00-4.003 4.002v28.052a4.002 4.002 0 01-4.002 4.002h-27.823a4.002 4.002 0 01-4.002-4.002v-28.052zm-3278.81-4.002H75.866a4.002 4.002 0 00-4.002 4.002v28.052a4.002 4.002 0 004.002 4.002h28.053a4.002 4.002 0 004.002-4.002v-28.052a4.002 4.002 0 00-4.002-4.002zm683.48 36.056a4.002 4.002 0 004.002-4.002v-28.052a4.002 4.002 0 00-4.002-4.002h-63.881a4.002 4.002 0 00-4.002 4.002v28.052a4.002 4.002 0 004.002 4.002h63.881zm2779.16 0a4.002 4.002 0 01-4.002-4.002v-28.052a4.002 4.002 0 014.002-4.002h63.881a4.002 4.002 0 014.002 4.002v28.052a4.002 4.002 0 01-4.002 4.002h-63.881zm683.48-36.056h28.053a4.002 4.002 0 014.002 4.002v28.052a4.002 4.002 0 01-4.002 4.002h-28.053a4.002 4.002 0 01-4.002-4.002v-28.052a4.002 4.002 0 014.002-4.002zm-3814.29 0a4.002 4.002 0 00-4.002 4.002v28.052a4.002 4.002 0 004.002 4.002h63.881a4.002 4.002 0 004.002-4.002v-28.052a4.002 4.002 0 00-4.002-4.002h-63.881zm3482.46 0a4.002 4.002 0 014.002 4.002v28.052a4.002 4.002 0 01-4.002 4.002h-63.881a4.002 4.002 0 01-4.002-4.002v-28.052a4.002 4.002 0 014.002-4.002h63.881zm-2353.3 21.915a4.002 4.002 0 014.003-4.002h9.905a4.002 4.002 0 014.002 4.002v9.909a4 4 0 01-4.002 4.001h-9.905a4.001 4.001 0 01-4.003-4.001v-9.909zm1224.14 0a4.002 4.002 0 00-4.003-4.002h-9.905a4.002 4.002 0 00-4.002 4.002v9.909a4 4 0 004.002 4.001h9.905a4.001 4.001 0 004.003-4.001v-9.909zm-1601.93-53.969a4.002 4.002 0 014.002-4.002h100.164a4.002 4.002 0 014.003 4.002v28.052a4.002 4.002 0 01-4.003 4.002h-100.164a4.002 4.002 0 01-4.002-4.002v-28.052zm2631.16-4.002h28.052a4.002 4.002 0 014.003 4.002v28.052a4.002 4.002 0 01-4.003 4.002h-28.052a4.002 4.002 0 01-4.002-4.002v-28.052a4.002 4.002 0 014.002-4.002zm-2451.34 4.002a4.008 4.008 0 014.002-4.002h28.055a4.002 4.002 0 014.002 4.002v28.052a4.002 4.002 0 01-4.002 4.002h-28.055a4.008 4.008 0 01-4.002-4.002v-28.052zm1620.09 0a4.008 4.008 0 00-4.002-4.002h-28.055a4.002 4.002 0 00-4.002 4.002v28.052a4.002 4.002 0 004.002 4.002h28.055a4.008 4.008 0 004.002-4.002v-28.052zm-1547.97 0a4.002 4.002 0 014.002-4.002h28.055a4.002 4.002 0 014.003 4.002v28.052a4.002 4.002 0 01-4.003 4.002h-28.055a4.002 4.002 0 01-4.002-4.002v-28.052zm-903.366-4.002h-28.052a4.002 4.002 0 00-4.003 4.002v28.052a4.002 4.002 0 004.003 4.002h28.052a4.002 4.002 0 004.002-4.002v-28.052a4.002 4.002 0 00-4.002-4.002zm2631.16 4.002a4.002 4.002 0 00-4.002-4.002h-100.164a4.002 4.002 0 00-4.003 4.002v28.052a4.002 4.002 0 004.003 4.002h100.164a4.002 4.002 0 004.002-4.002v-28.052zm-251.937 0a4.002 4.002 0 00-4.002-4.002h-28.055a4.002 4.002 0 00-4.003 4.002v28.052a4.002 4.002 0 004.003 4.002h28.055a4.002 4.002 0 004.002-4.002v-28.052zm1263.02-39.827h28.052a4.003 4.003 0 014.003 4.002v28.052a4.003 4.003 0 01-4.003 4.002h-28.052a4.002 4.002 0 01-4.002-4.002v-28.052a4.002 4.002 0 014.002-4.002zm-4001.89 0h-28.052a4.003 4.003 0 00-4.003 4.002v28.052a4.003 4.003 0 004.003 4.002h28.052a4.002 4.002 0 004.002-4.002v-28.052a4.002 4.002 0 00-4.002-4.002zm2094.88-.057c-2.988.359-4.873 2.33-4.177 5.258l-.202 26.623c0 2.211 1.98 4.001 4.191 4.001l65.095.231a4.002 4.002 0 004.002-4.002v-28.052a4.002 4.002 0 00-4.002-4.002l-64.907-.057zm-183.698 4.348c-.339-3.219-1.851-4.649-4.534-4.291h-64.543a4.002 4.002 0 00-4.002 4.002v28.052a4.002 4.002 0 004.002 4.002l66.086-.23c2.211 0 3.2-1.791 3.2-4.002l-.209-27.533zm1371.4-4.29h135.995a4.003 4.003 0 004.003-4.002v-28.052a4 4 0 014.002-4.001h27.823a4.001 4.001 0 014.002 4.001v28.052a4.002 4.002 0 004.002 4.002h63.881a4.002 4.002 0 014.002 4.002v27.822a4.001 4.001 0 01-4.002 4.001h-243.708a4.001 4.001 0 01-4.002-4.001v-27.822a4.002 4.002 0 014.002-4.002zm-2563.28 0H759.353a4.003 4.003 0 01-4.003-4.002v-28.052a4 4 0 00-4.002-4.001h-27.823a4.001 4.001 0 00-4.002 4.001v28.052a4.002 4.002 0 01-4.002 4.002H651.64a4.002 4.002 0 00-4.002 4.002v27.822a4.001 4.001 0 004.002 4.001h243.708a4.001 4.001 0 004.002-4.001v-27.822a4.002 4.002 0 00-4.002-4.002zm-395.711 35.824a4 4 0 004.002-4.001v-27.822a4.002 4.002 0 00-4.002-4.002h-63.881a4.002 4.002 0 00-4.002 4.002v27.822a4 4 0 004.002 4.001h63.881zm3354.7 0a4 4 0 01-4.002-4.001v-27.822a4.002 4.002 0 014.002-4.002h63.881a4.002 4.002 0 014.002 4.002v27.822a4 4 0 01-4.002 4.001h-63.881zm-3462.64-71.879h-28.052a4.001 4.001 0 00-4.002 4.001v28.052a4.002 4.002 0 004.002 4.002h28.052a4.003 4.003 0 004.003-4.002v-28.052a4.002 4.002 0 00-4.003-4.001zm3058.93 36.055h-63.88a4.002 4.002 0 01-4.002-4.002v-28.052a4 4 0 014.002-4.001h63.88a4.001 4.001 0 014.002 4.001v28.052a4.002 4.002 0 01-4.002 4.002zm511.658-36.055h28.052a4.001 4.001 0 014.002 4.001v28.052a4.002 4.002 0 01-4.002 4.002h-28.052a4.003 4.003 0 01-4.003-4.002v-28.052a4.002 4.002 0 014.003-4.001zm-3058.93 36.055h63.88a4.002 4.002 0 004.002-4.002v-28.052a4 4 0 00-4.002-4.001h-63.88a4.001 4.001 0 00-4.002 4.001v28.052a4.002 4.002 0 004.002 4.002zm1687.96-67.879a4.002 4.002 0 00-4.002-4.002h-28.056a4.002 4.002 0 00-4.002 4.002v28.051a4.001 4.001 0 004.002 4.002h28.056a4.001 4.001 0 004.002-4.002v-28.051zm-612.772 31.939c0-.064-.05-.115-.12-.115h-31.938a4.002 4.002 0 01-4.002-4.002v-27.822a4.002 4.002 0 00-4.002-4.002h-28.055a4.002 4.002 0 00-4.002 4.002v28.051a4.001 4.001 0 01-4.003 4.002h-28.055a4.001 4.001 0 01-4.002-4.002v-28.051a4.002 4.002 0 014.002-4.002h28.055a4.002 4.002 0 004.003-4.002v-28.052a4 4 0 014.002-4.001h28.055a4 4 0 014.002 4.001v28.052a4.002 4.002 0 004.002 4.002h64.105a4.002 4.002 0 014.002 4.002v28.051a4.001 4.001 0 01-4.002 4.002h-31.937a.113.113 0 01-.11-.114zm396.884 0c0-.064.05-.115.12-.115h31.938a4.002 4.002 0 004.002-4.002v-27.822a4.002 4.002 0 014.002-4.002h28.055a4.002 4.002 0 014.002 4.002v28.051a4.001 4.001 0 004.003 4.002h28.055a4.001 4.001 0 004.002-4.002v-28.051a4.002 4.002 0 00-4.002-4.002h-28.055a4.002 4.002 0 01-4.003-4.002v-28.052a4 4 0 00-4.002-4.001h-28.055a4 4 0 00-4.002 4.001v28.052a4.002 4.002 0 01-4.002 4.002h-64.105a4.002 4.002 0 00-4.002 4.002v28.051a4.001 4.001 0 004.002 4.002h31.937c.06 0 .11-.051.11-.114zm-612.772-31.939a4.002 4.002 0 014.002-4.002h28.056a4.002 4.002 0 014.002 4.002v28.051a4.001 4.001 0 01-4.002 4.002h-28.056a4.001 4.001 0 01-4.002-4.002v-28.051zm323.827 27.822a4.002 4.002 0 01-4.003 4.002h-28.055a4.002 4.002 0 01-4.002-4.002v-27.822a4.002 4.002 0 014.002-4.002h28.055a4.002 4.002 0 014.003 4.002v27.822zm-1942.5-99.932a4.002 4.002 0 014.003-4.002h27.823a4.002 4.002 0 004.002-4.002V40.057a4.002 4.002 0 00-4.002-4.002H75.87a4.002 4.002 0 00-4.002 4.002v27.822a4.002 4.002 0 01-4.002 4.002H40.042a4.002 4.002 0 01-4.002-4.002V40.057a4.002 4.002 0 014.002-4.002h27.824a4.002 4.002 0 004.002-4.002V4.002A4.002 4.002 0 0067.866 0H3.985A4.002 4.002 0 00-.017 4.002v99.932a4.002 4.002 0 004.002 4.002h28.053a4.001 4.001 0 014.002 4.001v28.052a4.002 4.002 0 01-4.002 4.002H3.985a4.002 4.002 0 00-4.002 4.002v27.822a4.002 4.002 0 004.002 4.002h63.881a4.002 4.002 0 004.002-4.002v-27.822a4.002 4.002 0 014.002-4.002h28.053a4.002 4.002 0 014.002 4.002v27.822a4.002 4.002 0 004.002 4.002h28.053a4.002 4.002 0 004.002-4.002v-27.822a4.003 4.003 0 014.003-4.002h27.823a4.002 4.002 0 004.002-4.002v-28.052a4.001 4.001 0 00-4.002-4.001h-27.823a4.003 4.003 0 01-4.003-4.002V75.883zm2123.5 99.932a4.002 4.002 0 004.003 4.002h28.055a4.002 4.002 0 004.002-4.002v-27.822a4.002 4.002 0 00-4.002-4.002h-28.055a4.002 4.002 0 00-4.003 4.002v27.822zm1942.5-99.932a4.002 4.002 0 00-4.003-4.002h-27.823a4.002 4.002 0 01-4.002-4.002V40.057a4.002 4.002 0 014.002-4.002h99.938a4.002 4.002 0 014.002 4.002v27.822a4.002 4.002 0 004.002 4.002h27.824a4.002 4.002 0 004.002-4.002V40.057a4.002 4.002 0 00-4.002-4.002h-27.824a4.002 4.002 0 01-4.002-4.002V4.002A4.002 4.002 0 014286.098 0h63.881a4.002 4.002 0 014.002 4.002v99.932a4.002 4.002 0 01-4.002 4.002h-28.053a4.001 4.001 0 00-4.002 4.001v28.052a4.002 4.002 0 004.002 4.002h28.053a4.002 4.002 0 014.002 4.002v27.822a4.002 4.002 0 01-4.002 4.002h-63.881a4.002 4.002 0 01-4.002-4.002v-27.822a4.002 4.002 0 00-4.002-4.002h-28.053a4.002 4.002 0 00-4.002 4.002v27.822a4.002 4.002 0 01-4.002 4.002h-28.053a4.002 4.002 0 01-4.002-4.002v-27.822a4.003 4.003 0 00-4.003-4.002h-27.823a4.002 4.002 0 01-4.002-4.002v-28.052a4.001 4.001 0 014.002-4.001h27.823a4.003 4.003 0 004.003-4.002V75.883zm-2019.57 68.108a4.002 4.002 0 004.002-4.002v-28.052a4 4 0 00-4.002-4.001h-26.866a4 4 0 00-4.002 4.001v28.052a4.002 4.002 0 004.002 4.002h26.866zM1442.825 36.055h64.115a4.008 4.008 0 014.002 4.002v28.051a4.001 4.001 0 004.002 4.002h28.046a4.002 4.002 0 014.002 4.002v27.822a4.002 4.002 0 01-4.002 4.002h-64.105a4.002 4.002 0 01-4.003-4.002V75.883a4.001 4.001 0 00-4.002-4.002h-28.055a4.002 4.002 0 01-4.002-4.002V40.057a4.002 4.002 0 014.002-4.002zm-183.83 39.828a4.001 4.001 0 014.002-4.002h28.055a4.001 4.001 0 004.002-4.002V40.057a4.002 4.002 0 014.003-4.002h100.164a4.002 4.002 0 014.002 4.002v28.051a4.001 4.001 0 01-4.002 4.002h-100.164a4.002 4.002 0 00-4.003 4.002v27.822c0 2.21-1.79 4.002-4.002 4.002h-28.055a4.002 4.002 0 01-4.002-4.002V75.883zm1652.14-39.828h-64.115a4.008 4.008 0 00-4.002 4.002v28.051a4.001 4.001 0 01-4.002 4.002h-28.046a4.002 4.002 0 00-4.002 4.002v27.822a4.002 4.002 0 004.002 4.002h64.105a4.002 4.002 0 004.003-4.002V75.883a4.001 4.001 0 014.002-4.002h28.055a4.002 4.002 0 004.002-4.002V40.057a4.002 4.002 0 00-4.002-4.002zm183.83 39.828a4.001 4.001 0 00-4.002-4.002h-28.055a4.001 4.001 0 01-4.002-4.002V40.057a4.002 4.002 0 00-4.003-4.002h-100.164a4.002 4.002 0 00-4.002 4.002v28.051a4.001 4.001 0 004.002 4.002h100.164a4.002 4.002 0 014.003 4.002v27.822c0 2.21 1.79 4.002 4.002 4.002h28.055a4.002 4.002 0 004.002-4.002V75.883zM471.575 36.055h99.937a4.003 4.003 0 004.003-4.002V4.002A4.003 4.003 0 00571.512 0h-99.937a4.002 4.002 0 00-4.002 4.002v28.051a4.002 4.002 0 004.002 4.002zm639.647 0a4.002 4.002 0 004.003-4.002V4.002A4.002 4.002 0 001111.222 0h-63.884a4.008 4.008 0 00-4.003 4.002v28.051a4.008 4.008 0 004.003 4.002h63.884zM1219.161 0h-63.875a4.002 4.002 0 00-4.002 4.002v28.051a4.002 4.002 0 004.002 4.002h63.875a4.002 4.002 0 004.002-4.002V4.002A4.002 4.002 0 001219.161 0zM895.339 0h-28.054a4.002 4.002 0 00-4.002 4.002v28.051a4.002 4.002 0 004.002 4.002h28.054a4.002 4.002 0 004.002-4.002V4.002A4.002 4.002 0 00895.339 0zM643.627 0h-28.053a4.002 4.002 0 00-4.002 4.002v28.051a4.002 4.002 0 004.002 4.002h28.053a4.002 4.002 0 004.002-4.002V4.002A4.002 4.002 0 00643.627 0zM219.863 36.055h135.766a4.002 4.002 0 004.002-4.002V4.002A4.002 4.002 0 00355.629 0H219.863a4.002 4.002 0 00-4.002 4.002v28.051a4.002 4.002 0 004.002 4.002zm3662.52 0h-99.937a4.003 4.003 0 01-4.003-4.002V4.002A4.003 4.003 0 013782.446 0h99.937a4.002 4.002 0 014.002 4.002v28.051a4.002 4.002 0 01-4.002 4.002zm-639.647 0a4.002 4.002 0 01-4.003-4.002V4.002A4.002 4.002 0 013242.736 0h63.884a4.008 4.008 0 014.003 4.002v28.051a4.008 4.008 0 01-4.003 4.002h-63.884zM3134.797 0h63.875a4.002 4.002 0 014.002 4.002v28.051a4.002 4.002 0 01-4.002 4.002h-63.875a4.002 4.002 0 01-4.002-4.002V4.002A4.002 4.002 0 013134.797 0zm323.822 0h28.054a4.002 4.002 0 014.002 4.002v28.051a4.002 4.002 0 01-4.002 4.002h-28.054a4.002 4.002 0 01-4.002-4.002V4.002A4.002 4.002 0 013458.619 0zm251.712 0h28.053a4.002 4.002 0 014.002 4.002v28.051a4.002 4.002 0 01-4.002 4.002h-28.053a4.002 4.002 0 01-4.002-4.002V4.002A4.002 4.002 0 013710.331 0zm423.764 36.055h-135.766a4.002 4.002 0 01-4.002-4.002V4.002A4.002 4.002 0 013998.329 0h135.766a4.002 4.002 0 014.002 4.002v28.051a4.002 4.002 0 01-4.002 4.002z"/>

<g id="shell" fill="none" stroke="#fff" stroke-width="2.5" opacity=".8">
  <path d="M85.062 69.294a4.8 4.8 0 100-9.6 4.8 4.8 0 000 9.6z"/>
  <path d="M31.462 58.794l17.2-10.1 59.7-34.6c13.5-5.5 28.3 4.5 28.3 19v31c0 5.6-4.3 10.4-9.8 10.7-5.9.3-10.7-4.3-10.9-10.1-.1-5-3.4-9.4-8.3-10.4-6.5-1.3-12.2 3.6-12.4 9.8-.2 5.3-3.9 10-9.3 10.6-6.1.6-11.2-4-11.4-9.9-.2-5.6-4.4-10.5-10-10.7-5.9-.2-10.6 4.5-10.6 10.3v.2c0 5.7-4.6 10.3-10.3 10.3-5.7 0-10.3-4.6-10.3-10.3 0-5.7-4.7-10.3-10.4-10.3s-10.4 4.7-10.4 10.4v10.3l114.2-.2"/>
  <path d="M58.762 55.794l45.8-26.5c10.4-5.1 21.7 3.4 21.7 14.6v20.6"/>
  <path stroke-linecap="round" d="M84.062 49.394l20.2-11.7c9.3-4.3 15.2 1.6 15.2 10.2v4.6"/>
</g>

<g id="bfb" fill="none" stroke="#fff" stroke-width="2.5">
<path d="M159.626 157.562l-28.7 22.2v-22.2"/>
<path d="M67.426 158.362h159.7l54.3-38.4v-11.6l-21.8-17.1v-48.7c0-16.6-13.4-30-30-30h-215.2c-2.2 0-2.6 3.2-.4 3.7l73 17.7-.2 100.2-19.4 24.2z"/>
<path d="M240.926 93.762a4.8 4.8 0 100-9.6 4.8 4.8 0 000 9.6z"/>
<g stroke-linecap="round">
<path d="M102.626 29.162h42.8"/>
<path d="M102.626 93.462h65.9"/>
<path d="M116.826 38.962h13.9"/>
<path d="M214.126 38.962h18.6"/>
<path d="M137.626 38.962h54.9"/>
<path d="M116.826 57.262h7.2"/>
<path d="M202.026 57.262h7.2"/>
<path d="M165.926 57.262h28.5"/>
<path d="M131.826 57.262h26.8"/>
<path d="M116.826 75.862h11.3"/>
<path d="M191.926 75.862h11.4"/>
<path d="M165.926 75.862h18.6"/>
<path d="M136.526 75.862h22.1"/>
<path d="M116.826 66.762h17.3"/>
<path d="M198.426 66.762h18.5"/>
<path d="M175.026 66.762h14.7"/>
<path d="M148.226 66.762h18.6"/>
<path d="M200.726 38.962h5.4"/>
<path d="M116.826 48.462h20.3"/>
<path d="M143.426 48.462h37"/>
<path d="M116.826 104.462h13.9"/>
<path d="M213.126 104.462h6.2"/>
<path d="M151.826 104.462h40.7"/>
<path d="M138.026 104.462h10.2"/>
<path d="M152.926 29.162h10.2"/>
<path d="M187.526 48.462h21.2"/>
<path d="M165.126 122.762h21.3"/>
<path d="M136.126 141.362h21.2"/>
<path d="M141.726 66.762h2.2"/>
<path d="M116.826 122.762h7.2"/>
<path d="M202.026 122.762h7.2"/>
<path d="M186.226 122.762h8.2"/>
<path d="M131.826 122.762h26.8"/>
<path d="M116.826 141.362h11.3"/>
<path d="M191.926 141.362h11.4"/>
<path d="M165.926 141.362h18.6"/>
<path d="M116.826 132.262h17.3"/>
<path d="M198.426 132.262h18.5"/>
<path d="M175.026 132.262h14.7"/>
<path d="M142.326 132.262h24.5"/>
<path d="M200.726 104.462h5.4"/>
<path d="M116.826 113.962h20.3"/>
<path d="M143.426 113.962h37"/>
<path d="M188.426 113.962h17.7"/>
</g>
</g>

<g id="bft1" fill="none" stroke="#fff" stroke-width="2.5">
  <path d="M35.962 108.962l36.001-41.6v-14.8l-36.001-40-23.4 29.4v37.6l23.4 29.4z"/>
  <path d="M12.562 41.962l59.401 10.6"/>
  <path d="M71.963 67.362l-59.401 12.2"/>
</g>
<g id="bft2" fill="none" stroke="#fff" stroke-width="2.5">
  <path d="M37.762 108.962l34.201-41.6v-14.8l-34.201-40-22.23 29.4v37.6l22.23 29.4z"/>
  <path d="M15.532 41.962l56.431 10.6"/>
  <path d="M71.963 67.362l-56.431 12.2"/>
</g>
<g id="bft3" fill="none" stroke="#fff" stroke-width="2.5">
  <path d="M39.562 108.962l32.401-41.6v-14.8l-32.401-40-21.06 29.4v37.6l21.06 29.4z"/>
  <path d="M18.502 41.962l53.461 10.6"/>
  <path d="M71.963 67.362l-53.461 12.2"/>
</g>
<g id="bft4" fill="none" stroke="#fff" stroke-width="2.5">
  <path d="M41.362 108.962l30.601-41.6v-14.8l-30.601-40-19.89 29.4v37.6l19.89 29.4z"/>
  <path d="M21.472 41.962l50.491 10.6"/>
  <path d="M71.963 67.362l-50.491 12.2"/>
</g>
<g id="bft5" fill="none" stroke="#fff" stroke-width="2.5">
  <path d="M43.162 108.962l28.801-41.6v-14.8l-28.801-40-18.72 29.4v37.6l18.72 29.4z"/>
  <path d="M24.442 41.962l47.521 10.6"/>
  <path d="M71.963 67.362l-47.521 12.2"/>
</g>
<g id="bft6" fill="none" stroke="#fff" stroke-width="2.5">
  <path d="M44.962 108.962l27.001-41.6v-14.8l-27.001-40-17.55 29.4v37.6l17.55 29.4z"/>
  <path d="M27.412 41.962l44.551 10.6"/>
  <path d="M71.963 67.362l-44.551 12.2"/>
</g>

<path id="bff1" fill="none" stroke="#fff" stroke-width="2.5" d="M54.962 12.962l-42.4 32.2v-32.6"/>
<path id="bff2" fill="none" stroke="#fff" stroke-width="2.5" d="M54.962 12.922l-42.4 28.98v-29.34"/>
<path id="bff3" fill="none" stroke="#fff" stroke-width="2.5" d="M54.962 12.882l-42.4 25.76v-26.08"/>

<g id="sfb">
<g fill="none" stroke="#fff" stroke-width="2.5">
<path d="M34.4 53l23.2 22.5h54.6l29.3-29.3L112 17.5H57.7L34.8 39.7"/>
<path d="M112.472 39.68l4.314 4.313 4.313-4.313-4.313-4.313-4.314 4.313z"/>
<path d="M133.8 38.2v15.3"/>
<path d="M111.7 17.2L94.6 0H11.4L2.9 8.1h19.6l21.7 21.7"/>
<path d="M102.2 8.1H34.7l15.2 16.1"/>
<path d="M113.6 74.1L96.2 91H12.1l-8.5-8h19.5l20.8-20.7"/>
<path d="M104.4 83H34.7l14-14.9"/>
<path d="M101.8 43.3v10.4l16.3 15.6"/>
<path d="M73.7 17.9v8"/>
<path d="M60.7 17.9v8"/>
</g>
<path fill="#fff" fill-rule="nonzero" d="M83.1 37v-3.7l-5 5 5 5v-3.7h1.4c1.3 0 2.3 1.1 2.3 2.4v10c-.5.2-1 .5-1.4.9-.7.7-1.1 1.6-1.1 2.6 0 2 1.6 3.7 3.7 3.7 1.2 0 2.3-.6 3-1.5.4-.6.7-1.3.7-2.1 0-1-.4-1.9-1.1-2.6-.3-.3-.7-.6-1.2-.8V42.1c0-2.8-2.2-5-5-5l-1.3-.1zm6.6 18.4c0 .9-.8 1.7-1.7 1.7-.9 0-1.7-.8-1.7-1.7 0-.4.1-.7.3-1 .1-.1.1-.2.2-.2.3-.3.7-.5 1.2-.5.4 0 .9.2 1.2.5.3.4.5.8.5 1.2z"/>
<path fill="#fff" fill-rule="nonzero" d="M76.3 58c.2-.1.3-.3.4-.5.4-.6.7-1.3.7-2.1 0-1.5-.9-2.8-2.2-3.4V41.6c.4-.2.8-.4 1.2-.8.2-.2.3-.3.4-.5.4-.6.7-1.3.7-2.1 0-2-1.6-3.7-3.7-3.7-1 0-1.9.4-2.6 1.1-.7.7-1.1 1.6-1.1 2.6s.4 1.9 1.1 2.6c.4.4.9.7 1.4.9v10.2c-1.4.5-2.5 1.8-2.5 3.4 0 2 1.6 3.7 3.7 3.7.9.1 1.8-.3 2.5-1zm-4.2-19.7c0-.4.1-.7.3-1 .1-.1.1-.2.2-.2.3-.3.7-.5 1.2-.5.9 0 1.7.8 1.7 1.7 0 .4-.2.9-.5 1.2-.3.3-.7.5-1.2.5-.4 0-.9-.2-1.2-.5-.4-.4-.5-.8-.5-1.2zM72 55.4c0-.4.1-.7.3-1 .3-.4.8-.7 1.4-.7.9 0 1.7.8 1.7 1.7 0 .4-.2.9-.5 1.2-.3.3-.7.5-1.2.5-.9 0-1.7-.8-1.7-1.7z"/>
</g>

<g id="sft1" fill="none" stroke="#fff" stroke-width="2.5">
  <path d="M10.3 52.441l32.8-26.2L10.3.041c-.1-.1-.2 0-.2.1l14.5 26-14.5 26c-.1.3.1.4.2.3z"/>
  <path d="M9.9.041H0l14.6 26.2L0 52.441h9.9"/>
  <path d="M23.6 26.341l-8.4.2"/>
</g>
<g id="sft2" fill="none" stroke="#fff" stroke-width="2.5">
  <path d="M11.94 52.441l31.16-26.2L11.94.041c-.095-.1-.19 0-.19.1l13.775 26-13.775 26c-.095.3.095.4.19.3z"/>
  <path d="M11.56.041H2.155l13.87 26.2-13.87 26.2h9.405"/>
  <path d="M24.575 26.341l-7.98.2"/>
</g>
<g id="sft3" fill="none" stroke="#fff" stroke-width="2.5">
  <path d="M13.58 52.441l29.52-26.2L13.58.041c-.09-.1-.18 0-.18.1l13.05 26-13.05 26c-.09.3.09.4.18.3z"/>
  <path d="M13.22.041H4.31l13.14 26.2-13.14 26.2h8.91"/>
  <path d="M25.55 26.341l-7.56.2"/>
</g>
<g id="sft4" fill="none" stroke="#fff" stroke-width="2.5">
  <path d="M15.22 52.441l27.88-26.2L15.22.041c-.085-.1-.17 0-.17.1l12.325 26-12.325 26c-.085.3.085.4.17.3z"/>
  <path d="M14.88.041H6.465l12.41 26.2-12.41 26.2h8.415"/>
  <path d="M26.525 26.341l-7.14.2"/>
</g>
<g id="sft5" fill="none" stroke="#fff" stroke-width="2.5">
  <path d="M16.86 52.441l26.24-26.2L16.86.041c-.08-.1-.16 0-.16.1l11.6 26-11.6 26c-.08.3.08.4.16.3z"/>
  <path d="M16.54.041H8.62l11.68 26.2-11.68 26.2h7.92"/>
  <path d="M27.5 26.341l-6.72.2"/>
</g>

<g id="weed_01" fill="none" stroke="#fff" stroke-width="2.5">
  <path d="M15.4 122V8.7"/>
  <path d="M15.4 80.8l11.9-11.9c2.3-2.3 3.5-5.3 3.5-8.5V45.7"/>
  <path stroke-linecap="round" d="M30.8 36.2V0"/>
  <path d="M2 82.3v67.2"/>
  <path d="M2.1 73.3V62.5"/>
  <path d="M15.4 58.9L3.5 47C1.2 44.7 0 41.7 0 38.5V23.8"/>
</g>

<g id="weed_02">
<g fill="none" stroke="#fff" stroke-width="2.5">
<path d="M12.862 82.662l.2 15.8c0 1.7.7 3.3 1.9 4.5l28.7 27.7c1.2 1.2 1.9 2.8 1.9 4.5l.2 23.9c0 2.3.8 6.7 8.6 6.6"/>
<path d="M36.162 123.562l-.2-14.8c0-3.5 2.8-6.4 6.3-6.4h1.2c3.5 0 6.3-2.9 6.3-6.4l-.3-29.2"/>
<path d="M49.862 90.362l-12.2-12c-1.2-1.2-1.9-2.8-1.9-4.5l-.3-27.2"/>
<path d="M45.362 152.562l-18.9-18.6c-1.2-1.2-1.9-2.8-1.9-4.5l-.7-62.6"/>
<path d="M91.362 102.562h2.6c3.5 0 6.3-2.9 6.3-6.4l-.2-14.6"/>
<path d="M69.062 137.362l-.5-51.9"/>
<path d="M54.362 165.762h2c3.5 0 6.3-2.9 6.3-6.4l-.1-12.8c0-1.7.6-3.3 1.8-4.5l24-24.6c1.2-1.2 1.8-2.8 1.8-4.5l-.5-46.7"/>
<path d="M69.162 99.762l3.9-2.9c1.2-1.2 1.8-2.8 1.8-4.5l-.1-16.2"/>
<path d="M54.762 201.862l-.7-70.7c0-1.6.6-3.2 1.7-4.4l3.5-3.8c1.1-1.2 1.7-2.8 1.7-4.4l-.4-42.3"/>
</g>
<g fill="none" stroke="#fff" stroke-linecap="round" stroke-width="2.5">
<path d="M12.762 77.562l-.2-25.1"/>
<path d="M23.762 61.262l-.3-25.1"/>
<path d="M35.362 37.762l-.3-25.2"/>
<path d="M49.462 60.162l-.2-25.1"/>
<path d="M60.262 40.262l-.3-25.1"/>
<path d="M89.662 60.162l-.2-25.1"/>
<path d="M100.862 76.262l-.2-25.1"/>
</g>
<path fill="#fff" fill-rule="nonzero" d="M69.962 50.162v-3.7l-5 5 5 5v-3.7h1.4c1.3 0 2.3 1.1 2.3 2.3v10c-.5.2-1 .5-1.4.8-.7.7-1.1 1.6-1.1 2.6 0 2 1.6 3.7 3.7 3.7 1.2 0 2.3-.6 3-1.5.4-.6.7-1.3.7-2.1 0-1-.4-1.9-1.1-2.6-.3-.3-.7-.6-1.2-.8v-10c0-2.8-2.2-5-5-5h-1.3zm6.6 18.4c0 .9-.8 1.7-1.7 1.7-.9 0-1.7-.8-1.7-1.7 0-.3.1-.7.3-1 .1-.1.1-.2.2-.2.3-.3.7-.5 1.2-.5.4 0 .9.2 1.2.5.3.3.5.8.5 1.2z"/>
<path fill="#fff" fill-rule="nonzero" d="M63.162 71.162c.2-.1.3-.3.4-.5.4-.6.7-1.3.7-2.1 0-1.5-.9-2.8-2.2-3.4v-10.3c.4-.2.8-.4 1.2-.8.1-.2.3-.3.4-.5.4-.6.7-1.3.7-2.1 0-2-1.6-3.7-3.7-3.7-1 0-1.9.4-2.6 1.1-.7.7-1.1 1.6-1.1 2.6s.4 1.9 1.1 2.6c.4.4.9.7 1.4.9v10.2c-1.4.5-2.5 1.8-2.5 3.4 0 2 1.6 3.7 3.7 3.7.9-.1 1.8-.4 2.5-1.1zm-4.2-19.7c0-.3.1-.7.3-1 .1-.1.1-.2.2-.2.3-.3.7-.5 1.2-.5.9 0 1.7.8 1.7 1.7 0 .4-.2.9-.5 1.2-.3.3-.7.5-1.2.5-.4 0-.9-.2-1.2-.5-.3-.3-.5-.8-.5-1.2zm0 17.1c0-.4.1-.7.3-1 .3-.4.8-.7 1.4-.7.9 0 1.7.8 1.7 1.7 0 .4-.2.9-.5 1.2-.3.3-.7.5-1.2.5-1-.1-1.7-.8-1.7-1.7z"/>
</g>

<g id="bubble_line" fill="#fff" fill-rule="nonzero">
  <path d="M3.05 110.9c-1.7 0-3-1.3-3-3 0-1.6 1.3-3 3-3 1.6 0 3 1.3 3 3s-1.3 3-3 3z"/>
  <path d="M3.05 118.8c-.9 0-1.6-.7-1.6-1.6 0-.9.7-1.6 1.6-1.6.9 0 1.6.7 1.6 1.6 0 .9-.7 1.6-1.6 1.6z"/>
  <path d="M3.05 126.6c-.9 0-1.6-.7-1.6-1.6 0-.9.7-1.6 1.6-1.6.9 0 1.6.7 1.6 1.6 0 .9-.7 1.6-1.6 1.6z"/>
  <path d="M3.05 134.5c-.9 0-1.6-.7-1.6-1.6 0-.9.7-1.6 1.6-1.6.9 0 1.6.7 1.6 1.6 0 .9-.7 1.6-1.6 1.6z"/>
  <path d="M3.05 142.3c-.9 0-1.6-.7-1.6-1.6 0-.9.7-1.6 1.6-1.6.9 0 1.6.7 1.6 1.6 0 .9-.7 1.6-1.6 1.6z"/>
  <path d="M3.05 150.2c-.9 0-1.6-.7-1.6-1.6 0-.9.7-1.6 1.6-1.6.9 0 1.6.7 1.6 1.6 0 .9-.7 1.6-1.6 1.6z"/>
  <path d="M3.05 174c-.9 0-1.6-.7-1.6-1.6 0-.9.7-1.6 1.6-1.6.9 0 1.6.7 1.6 1.6 0 .9-.7 1.6-1.6 1.6z"/>
  <path d="M3.05 217.6c-.9 0-1.6-.7-1.6-1.6 0-.9.7-1.6 1.6-1.6.9 0 1.6.7 1.6 1.6 0 .9-.7 1.6-1.6 1.6z"/>
  <path d="M3.05 225.4c-.9 0-1.6-.7-1.6-1.6 0-.9.7-1.6 1.6-1.6.9 0 1.6.7 1.6 1.6 0 .9-.7 1.6-1.6 1.6z"/>
  <path d="M2.85 196.6c-.8 0-1.5-.7-1.5-1.5v-15.2c0-.8.7-1.5 1.5-1.5s1.5.7 1.5 1.5v15.2c0 .9-.7 1.5-1.5 1.5z"/>
  <path d="M2.85 165.1c-.8 0-1.5-.7-1.5-1.5v-6.1c0-.8.7-1.5 1.5-1.5s1.5.7 1.5 1.5v6.1c0 .9-.7 1.5-1.5 1.5z"/>
  <path d="M2.85 209.6c-.8 0-1.5-.7-1.5-1.5v-5.2c0-.8.7-1.5 1.5-1.5s1.5.7 1.5 1.5v5.2c0 .9-.7 1.5-1.5 1.5z"/>
</g>

<g id="bubble_line2" fill="#fff" fill-rule="nonzero">
  <path d="M4 110.9c-1.7 0-3-1.3-3-3 0-1.6 1.3-3 3-3 1.6 0 3 1.3 3 3s-1.3 3-3 3z"/>
  <path d="M2 118.8c-.9 0-1.6-.7-1.6-1.6 0-.9.7-1.6 1.6-1.6.9 0 1.6.7 1.6 1.6 0 .9-.7 1.6-1.6 1.6z"/>
  <path d="M4 126.6c-.9 0-1.6-.7-1.6-1.6 0-.9.7-1.6 1.6-1.6.9 0 1.6.7 1.6 1.6 0 .9-.7 1.6-1.6 1.6z"/>
  <path d="M2 134.5c-.9 0-1.6-.7-1.6-1.6 0-.9.7-1.6 1.6-1.6.9 0 1.6.7 1.6 1.6 0 .9-.7 1.6-1.6 1.6z"/>
  <path d="M4 142.3c-.9 0-1.6-.7-1.6-1.6 0-.9.7-1.6 1.6-1.6.9 0 1.6.7 1.6 1.6 0 .9-.7 1.6-1.6 1.6z"/>
  <path d="M2 150.2c-.9 0-1.6-.7-1.6-1.6 0-.9.7-1.6 1.6-1.6.9 0 1.6.7 1.6 1.6 0 .9-.7 1.6-1.6 1.6z"/>
  <path d="M2 174c-.9 0-1.6-.7-1.6-1.6 0-.9.7-1.6 1.6-1.6.9 0 1.6.7 1.6 1.6 0 .9-.7 1.6-1.6 1.6z"/>
  <path d="M4 217.6c-.9 0-1.6-.7-1.6-1.6 0-.9.7-1.6 1.6-1.6.9 0 1.6.7 1.6 1.6 0 .9-.7 1.6-1.6 1.6z"/>
  <path d="M2 225.4c-.9 0-1.6-.7-1.6-1.6 0-.9.7-1.6 1.6-1.6.9 0 1.6.7 1.6 1.6 0 .9-.7 1.6-1.6 1.6z"/>
  <path d="M3.8 196.6c-.8 0-1.5-.7-1.5-1.5v-15.2c0-.8.7-1.5 1.5-1.5s1.5.7 1.5 1.5v15.2c0 .9-.7 1.5-1.5 1.5z"/>
  <path d="M3.8 165.1c-.8 0-1.5-.7-1.5-1.5v-6.1c0-.8.7-1.5 1.5-1.5s1.5.7 1.5 1.5v6.1c0 .9-.7 1.5-1.5 1.5z"/>
  <path d="M1.8 209.6c-.8 0-1.5-.7-1.5-1.5v-5.2c0-.8.7-1.5 1.5-1.5s1.5.7 1.5 1.5v5.2c0 .9-.7 1.5-1.5 1.5z"/>
</g>

<g id="bubble_line3" fill="#fff" fill-rule="nonzero">
  <path d="M2 110.9c-1.7 0-3-1.3-3-3 0-1.6 1.3-3 3-3 1.6 0 3 1.3 3 3s-1.3 3-3 3z"/>
  <path d="M4 118.8c-.9 0-1.6-.7-1.6-1.6 0-.9.7-1.6 1.6-1.6.9 0 1.6.7 1.6 1.6 0 .9-.7 1.6-1.6 1.6z"/>
  <path d="M2 126.6c-.9 0-1.6-.7-1.6-1.6 0-.9.7-1.6 1.6-1.6.9 0 1.6.7 1.6 1.6 0 .9-.7 1.6-1.6 1.6z"/>
  <path d="M4 134.5c-.9 0-1.6-.7-1.6-1.6 0-.9.7-1.6 1.6-1.6.9 0 1.6.7 1.6 1.6 0 .9-.7 1.6-1.6 1.6z"/>
  <path d="M2 142.3c-.9 0-1.6-.7-1.6-1.6 0-.9.7-1.6 1.6-1.6.9 0 1.6.7 1.6 1.6 0 .9-.7 1.6-1.6 1.6z"/>
  <path d="M4 150.2c-.9 0-1.6-.7-1.6-1.6 0-.9.7-1.6 1.6-1.6.9 0 1.6.7 1.6 1.6 0 .9-.7 1.6-1.6 1.6z"/>
  <path d="M4 174c-.9 0-1.6-.7-1.6-1.6 0-.9.7-1.6 1.6-1.6.9 0 1.6.7 1.6 1.6 0 .9-.7 1.6-1.6 1.6z"/>
  <path d="M2 217.6c-.9 0-1.6-.7-1.6-1.6 0-.9.7-1.6 1.6-1.6.9 0 1.6.7 1.6 1.6 0 .9-.7 1.6-1.6 1.6z"/>
  <path d="M4 225.4c-.9 0-1.6-.7-1.6-1.6 0-.9.7-1.6 1.6-1.6.9 0 1.6.7 1.6 1.6 0 .9-.7 1.6-1.6 1.6z"/>
  <path d="M1.8 196.6c-.8 0-1.5-.7-1.5-1.5v-15.2c0-.8.7-1.5 1.5-1.5s1.5.7 1.5 1.5v15.2c0 .9-.7 1.5-1.5 1.5z"/>
  <path d="M1.8 165.1c-.8 0-1.5-.7-1.5-1.5v-6.1c0-.8.7-1.5 1.5-1.5s1.5.7 1.5 1.5v6.1c0 .9-.7 1.5-1.5 1.5z"/>
  <path d="M3.8 209.6c-.8 0-1.5-.7-1.5-1.5v-5.2c0-.8.7-1.5 1.5-1.5s1.5.7 1.5 1.5v5.2c0 .9-.7 1.5-1.5 1.5z"/>
</g>

<g id="bbl1" opacity=".5">
  <use xlink:href="#bubble_line"/>
  <g fill="none" stroke="#fff" stroke-width="2.5">
  <path d="M6.35 12.2a6.1 6.1 0 100-12.2 6.1 6.1 0 000 12.2z"/>
  <path d="M23.05 79.1a6.1 6.1 0 100-12.2 6.1 6.1 0 000 12.2z"/>
  <path d="M23.05 124a6.1 6.1 0 100-12.2 6.1 6.1 0 000 12.2z"/>
  <path d="M12.45 54.1c0 3.4-2.7 6.1-6.1 6.1-3.4 0-6.1-2.7-6.1-6.1v-24c0-3.4 2.7-6.1 6.1-6.1 3.4 0 6.1 2.7 6.1 6.1v24z"/>
  </g>
</g>
<g id="bbl2" opacity=".5">
  <use xlink:href="#bubble_line2"/>
  <g fill="none" stroke="#fff" stroke-width="2.5">
  <path d="M4.3 12.2A6.1 6.1 0 104.3 0a6.1 6.1 0 000 12.2z"/>
  <path d="M21 79.1a6.1 6.1 0 100-12.2 6.1 6.1 0 000 12.2z"/>
  <path d="M25 124a6.1 6.1 0 100-12.2 6.1 6.1 0 000 12.2z"/>
  <path d="M14.4 54.1c0 3.4-2.7 6.1-6.1 6.1-3.4 0-6.1-2.7-6.1-6.1v-24c0-3.4 2.7-6.1 6.1-6.1 3.4 0 6.1 2.7 6.1 6.1v24z"/>
  </g>
</g>
<g id="bbl3" opacity=".5">
  <use xlink:href="#bubble_line"/>
  <g fill="none" stroke="#fff" stroke-width="2.5">
  <path d="M2.3 12.2A6.1 6.1 0 102.3 0a6.1 6.1 0 000 12.2z"/>
  <path d="M19 79.1a6.1 6.1 0 100-12.2 6.1 6.1 0 000 12.2z"/>
  <path d="M27 124a6.1 6.1 0 100-12.2 6.1 6.1 0 000 12.2z"/>
  <path d="M16.4 54.1c0 3.4-2.7 6.1-6.1 6.1-3.4 0-6.1-2.7-6.1-6.1v-24c0-3.4 2.7-6.1 6.1-6.1 3.4 0 6.1 2.7 6.1 6.1v24z"/>
  </g>
</g>
<g id="bbl4" opacity=".5">
  <use xlink:href="#bubble_line3"/>
  <g fill="none" stroke="#fff" stroke-width="2.5">
  <path d="M8.3 12.2A6.1 6.1 0 108.3 0a6.1 6.1 0 000 12.2z"/>
  <path d="M25 79.1a6.1 6.1 0 100-12.2 6.1 6.1 0 000 12.2z"/>
  <path d="M21 124a6.1 6.1 0 100-12.2 6.1 6.1 0 000 12.2z"/>
  <path d="M10.4 54.1c0 3.4-2.7 6.1-6.1 6.1-3.4 0-6.1-2.7-6.1-6.1v-24c0-3.4 2.7-6.1 6.1-6.1 3.4 0 6.1 2.7 6.1 6.1v24z"/>
  </g>
</g>
<g id="bbl5" opacity=".5">
  <use xlink:href="#bubble_line"/>
  <g fill="none" stroke="#fff" stroke-width="2.5">
  <path d="M10.3 12.2a6.1 6.1 0 100-12.2 6.1 6.1 0 000 12.2z"/>
  <path d="M27 79.1a6.1 6.1 0 100-12.2 6.1 6.1 0 000 12.2z"/>
  <path d="M19 124a6.1 6.1 0 100-12.2 6.1 6.1 0 000 12.2z"/>
  <path d="M8.4 54.1c0 3.4-2.7 6.1-6.1 6.1-3.4 0-6.1-2.7-6.1-6.1v-24c0-3.4 2.7-6.1 6.1-6.1 3.4 0 6.1 2.7 6.1 6.1v24z"/>
  </g>
</g>

<path id="jf1" fill="none" stroke="#fff" stroke-width="2.2" d="M8.202 75.1l.998-1.997c1.1-2.2 1.1-4.9 0-7.1l-1.9-3.8c-1.1-2.2-1.1-4.9 0-7.1l1.893-3.786.013-.027c1.094-2.197 1.092-4.891-.006-7.087l-1.9-3.8c-1.1-2.2-1.1-4.9 0-7.1l1.9-3.8a7.757 7.757 0 00.635-1.8"/>
<path id="jf2" fill="none" stroke="#fff" stroke-width="2.2" d="M9.202 75.1c1.098-2.199 1.097-4.898-.002-7.097l-1.9-3.8c-1.1-2.2-1.1-4.9 0-7.1l1.893-3.786.013-.027c1.094-2.197 1.092-4.891-.006-7.087l-1.9-3.8c-1.1-2.2-1.1-4.9 0-7.1l1.9-3.8a7.98 7.98 0 00.821-3.8"/>
<path id="jf3" fill="none" stroke="#fff" stroke-width="2.2" d="M9.877 75.1c.332-1.712.106-3.531-.677-5.097l-1.9-3.8c-1.1-2.2-1.1-4.9 0-7.1l1.893-3.786.013-.027c1.094-2.197 1.092-4.891-.006-7.087l-1.9-3.8c-1.1-2.2-1.1-4.9 0-7.1l1.9-3.8c.891-1.782 1.06-3.893.507-5.8"/>
<path id="jf4" fill="none" stroke="#fff" stroke-width="2.2" d="M10.012 75.1a7.909 7.909 0 00-.812-3.097l-1.9-3.8c-1.1-2.2-1.1-4.9 0-7.1l1.893-3.786.013-.027c1.094-2.197 1.092-4.891-.006-7.087l-1.9-3.8c-1.1-2.2-1.1-4.9 0-7.1l1.9-3.8c1.1-2.2 1.1-4.9 0-7.1l-.35-.7"/>
<path id="jf5" fill="none" stroke="#fff" stroke-width="2.2" d="M9.646 75.1a7.663 7.663 0 00-.446-1.097l-1.9-3.8c-1.1-2.2-1.1-4.9 0-7.1l1.893-3.786.013-.027c1.094-2.197 1.092-4.891-.006-7.087l-1.9-3.8c-1.1-2.2-1.1-4.9 0-7.1l1.9-3.8c1.1-2.2 1.1-4.9 0-7.1l-1.35-2.7"/>
<path id="jf6" fill="none" stroke="#fff" stroke-width="2.2" d="M8.748 75.1L7.3 72.203c-1.1-2.2-1.1-4.9 0-7.1l1.893-3.786.013-.027c1.094-2.197 1.092-4.891-.006-7.087l-1.9-3.8c-1.1-2.2-1.1-4.9 0-7.1l1.9-3.8c1.1-2.2 1.1-4.9 0-7.1l-1.9-3.8a7.625 7.625 0 01-.38-.9"/>
<path id="jf7" fill="none" stroke="#fff" stroke-width="2.2" d="M7.748 75.1l-.448-.897c-1.1-2.2-1.1-4.9 0-7.1l1.893-3.786.013-.027c1.094-2.197 1.092-4.891-.006-7.087l-1.9-3.8c-1.1-2.2-1.1-4.9 0-7.1l1.9-3.8c1.1-2.2 1.1-4.9 0-7.1l-1.9-3.8a7.879 7.879 0 01-.799-2.903"/>
<path id="jf8" fill="none" stroke="#fff" stroke-width="2.2" d="M6.852 75.1c-.623-1.958-.474-4.153.448-5.997l1.893-3.786.013-.027c1.094-2.197 1.092-4.891-.006-7.087l-1.9-3.8c-1.1-2.2-1.1-4.9 0-7.1l1.9-3.8c1.1-2.2 1.1-4.9 0-7.1l-1.9-3.8c-.753-1.506-.991-3.246-.713-4.9"/>
<path id="jf9" fill="none" stroke="#fff" stroke-width="2.2" d="M6.487 75.1a7.992 7.992 0 01.813-3.997l1.893-3.786.013-.027c1.094-2.197 1.092-4.891-.006-7.087l-1.9-3.8c-1.1-2.2-1.1-4.9 0-7.1l1.9-3.8c1.1-2.2 1.1-4.9 0-7.1l-1.9-3.8c-1.067-2.134-1.099-4.738-.096-6.9"/>
<path id="jf10" fill="none" stroke="#fff" stroke-width="2.2" d="M6.624 75.1a7.82 7.82 0 01.676-1.997l1.893-3.786.013-.027c1.094-2.197 1.092-4.891-.006-7.087l-1.9-3.8c-1.1-2.2-1.1-4.9 0-7.1l1.9-3.8c1.1-2.2 1.1-4.9 0-7.1l-1.9-3.8c-1.1-2.2-1.1-4.9 0-7.1l.9-1.8"/>
<path id="jf11" fill="none" stroke="#fff" stroke-width="2.2" d="M7.302 75.1l1.891-3.783.013-.027c1.094-2.197 1.092-4.891-.006-7.087l-1.9-3.8c-1.1-2.2-1.1-4.9 0-7.1l1.9-3.8c1.1-2.2 1.1-4.9 0-7.1l-1.9-3.8c-1.1-2.2-1.1-4.9 0-7.1l1.9-3.8"/>
<path id="jfb" fill="none" stroke="#fff" stroke-width="2.5" d="M40.3 20.1H0C0 9 9 0 20.1 0c11.1 0 20.2 9 20.2 20.1z"/>

</defs>
<rect id="bg" width="3200" height="900" x="0" y="0" fill="url(#lnr1)"/>

<g clip-path="url(#clp)">
<g id="wtr">
<use x="0" y="0" xlink:href="#water"/>
<use x="4354" y="0" xlink:href="#water"/>
</g>

<g id="bubble_set1">
<use id="j1" x="980" y="900" xlink:href="#bbl1"/>
<use id="j2" x="980" y="900" xlink:href="#bbl2"/>
<use id="j3" x="980" y="900" xlink:href="#bbl3"/>
<use id="j4" x="980" y="900" xlink:href="#bbl2"/>
<use id="j5" x="980" y="900" xlink:href="#bbl1"/>
<use id="j6" x="980" y="900" xlink:href="#bbl4"/>
<use id="j7" x="980" y="900" xlink:href="#bbl5"/>
<use id="j8" x="980" y="900" xlink:href="#bbl4"/>
</g>

<g id="bubble_set2">
<use id="j1" x="2514" y="900" xlink:href="#bbl1"/>
<use id="j2" x="2514" y="900" xlink:href="#bbl2"/>
<use id="j3" x="2514" y="900" xlink:href="#bbl3"/>
<use id="j4" x="2514" y="900" xlink:href="#bbl2"/>
<use id="j5" x="2514" y="900" xlink:href="#bbl1"/>
<use id="j6" x="2514" y="900" xlink:href="#bbl4"/>
<use id="j7" x="2514" y="900" xlink:href="#bbl5"/>
<use id="j8" x="2514" y="900" xlink:href="#bbl4"/>
</g>

<g id="bubble_set3">
<g transform="translate(1613 0) scale(-1 1) translate(-1613 0)">
<use id="j1" x="1613" y="900" xlink:href="#bbl1"/>
<use id="j2" x="1613" y="900" xlink:href="#bbl2"/>
<use id="j3" x="1613" y="900" xlink:href="#bbl3"/>
<use id="j4" x="1613" y="900" xlink:href="#bbl2"/>
<use id="j5" x="1613" y="900" xlink:href="#bbl1"/>
<use id="j6" x="1613" y="900" xlink:href="#bbl4"/>
<use id="j7" x="1613" y="900" xlink:href="#bbl5"/>
<use id="j8" x="1613" y="900" xlink:href="#bbl4"/>
</g>
</g>
</g>

<use x="1640.6" y="823.7" xlink:href="#shell"/>

<g id="big_fish" opacity=".8">
<use x="660" y="662" xlink:href="#bfb"/>
<use id="a1" x="672.8" y="692.9" xlink:href="#bft1"/>
<use id="a2" x="672.8" y="692.9" xlink:href="#bft2"/>
<use id="a3" x="672.8" y="692.9" xlink:href="#bft3"/>
<use id="a4" x="672.8" y="692.9" xlink:href="#bft4"/>
<use id="a5" x="672.8" y="692.9" xlink:href="#bft5"/>
<use id="a6" x="672.8" y="692.9" xlink:href="#bft6"/>
<use id="a7" x="672.8" y="692.9" xlink:href="#bft5"/>
<use id="a8" x="672.8" y="692.9" xlink:href="#bft4"/>
<use id="a9" x="672.8" y="692.9" xlink:href="#bft3"/>
<use id="a10" x="672.8" y="692.9" xlink:href="#bft2"/>
<use id="b1" x="832.4" y="807" xlink:href="#bff1"/>
<use id="b2" x="832.4" y="807" xlink:href="#bff2"/>
<use id="b3" x="832.4" y="807" xlink:href="#bff3"/>
<use id="b4" x="832.4" y="807" xlink:href="#bff2"/>
</g>

<g id="small_fish" opacity=".7">
<use x="1120" y="152.2" xlink:href="#sfb"/>
<use id="c1" x="1117.1" y="172.2" xlink:href="#sft1"/>
<use id="c2" x="1117.1" y="172.2" xlink:href="#sft2"/>
<use id="c3" x="1117.1" y="172.2" xlink:href="#sft3"/>
<use id="c4" x="1117.1" y="172.2" xlink:href="#sft4"/>
<use id="c5" x="1117.1" y="172.2" xlink:href="#sft5"/>
<use id="c6" x="1117.1" y="172.2" xlink:href="#sft4"/>
<use id="c7" x="1117.1" y="172.2" xlink:href="#sft3"/>
<use id="c8" x="1117.1" y="172.2" xlink:href="#sft2"/>
</g>

<g opacity=".8">
<use id="d1" x="2303.3" y="811" xlink:href="#weed_01"/>
<use id="d2" x="2303.3" y="811" transform="rotate(.5 2318.7 960.5)" xlink:href="#weed_01"/>
<use id="d3" x="2303.3" y="811" transform="rotate(1 2318.7 960.5)" xlink:href="#weed_01"/>
<use id="d4" x="2303.3" y="811" transform="rotate(1.3 2318.7 960.5)" xlink:href="#weed_01"/>
<use id="d5" x="2303.3" y="811" transform="rotate(1.5 2318.7 960.5)" xlink:href="#weed_01"/>
<use id="d6" x="2303.3" y="811" transform="rotate(1.3 2318.7 960.5)" xlink:href="#weed_01"/>
<use id="d7" x="2303.3" y="811" transform="rotate(1 2318.7 960.5)" xlink:href="#weed_01"/>
<use id="d8" x="2303.3" y="811" transform="rotate(.5 2318.7 960.5)" xlink:href="#weed_01"/>
<use id="d9" x="2303.3" y="811" xlink:href="#weed_01"/>
<use id="d10" x="2303.3" y="811" transform="rotate(-.5 2318.7 960.5)" xlink:href="#weed_01"/>
<use id="d11" x="2303.3" y="811" transform="rotate(-1 2318.7 960.5)" xlink:href="#weed_01"/>
<use id="d12" x="2303.3" y="811" transform="rotate(-1.3 2318.7 960.5)" xlink:href="#weed_01"/>
<use id="d13" x="2303.3" y="811" transform="rotate(-1.5 2318.7 960.5)" xlink:href="#weed_01"/>
<use id="d14" x="2303.3" y="811" transform="rotate(-1.3 2318.7 960.5)" xlink:href="#weed_01"/>
<use id="d15" x="2303.3" y="811" transform="rotate(-1 2318.7 960.5)" xlink:href="#weed_01"/>
<use id="d16" x="2303.3" y="811" transform="rotate(-.5 2318.7 960.5)" xlink:href="#weed_01"/>

<use id="e1" x="2358.7" y="715.2" xlink:href="#weed_02"/>
<use id="e2" x="2358.7" y="715.2" transform="rotate(.5 2402.8 904.5)" xlink:href="#weed_02"/>
<use id="e3" x="2358.7" y="715.2" transform="rotate(1 2402.8 904.5)" xlink:href="#weed_02"/>
<use id="e4" x="2358.7" y="715.2" transform="rotate(1.3 2402.8 904.5)" xlink:href="#weed_02"/>
<use id="e5" x="2358.7" y="715.2" transform="rotate(1.5 2402.8 904.5)" xlink:href="#weed_02"/>
<use id="e6" x="2358.7" y="715.2" transform="rotate(1.3 2402.8 904.5)" xlink:href="#weed_02"/>
<use id="e7" x="2358.7" y="715.2" transform="rotate(1 2402.8 904.5)" xlink:href="#weed_02"/>
<use id="e8" x="2358.7" y="715.2" transform="rotate(.5 2402.8 904.5)" xlink:href="#weed_02"/>
<use id="e9" x="2358.7" y="715.2" xlink:href="#weed_02"/>
<use id="e10" x="2358.7" y="715.2" transform="rotate(-.5 2402.8 904.5)" xlink:href="#weed_02"/>
<use id="e11" x="2358.7" y="715.2" transform="rotate(-1 2402.8 904.5)" xlink:href="#weed_02"/>
<use id="e12" x="2358.7" y="715.2" transform="rotate(-1.3 2402.8 904.5)" xlink:href="#weed_02"/>
<use id="e13" x="2358.7" y="715.2" transform="rotate(-1.5 2402.8 904.5)" xlink:href="#weed_02"/>
<use id="e14" x="2358.7" y="715.2" transform="rotate(-1.3 2402.8 904.5)" xlink:href="#weed_02"/>
<use id="e15" x="2358.7" y="715.2" transform="rotate(-1 2402.8 904.5)" xlink:href="#weed_02"/>
<use id="e16" x="2358.7" y="715.2" transform="rotate(-.5 2402.8 904.5)" xlink:href="#weed_02"/>
</g>

<g id="jellyfish" opacity=".8">
<use x="1405.2" y="701.3" xlink:href="#jfb"/>
<g id="k1">
  <use x="1405.2" y="701.3" xlink:href="#jf1"/>
  <use x="1417.1" y="701.3" xlink:href="#jf1"/>
  <use x="1429" y="701.3" xlink:href="#jf1"/>
</g>
<g id="k2">
  <use x="1405.2" y="701.3" xlink:href="#jf2"/>
  <use x="1417.1" y="701.3" xlink:href="#jf2"/>
  <use x="1429" y="701.3" xlink:href="#jf2"/>
</g>
<g id="k3">
  <use x="1405.2" y="701.3" xlink:href="#jf3"/>
  <use x="1417.1" y="701.3" xlink:href="#jf3"/>
  <use x="1429" y="701.3" xlink:href="#jf3"/>
</g>
<g id="k4">
  <use x="1405.2" y="701.3" xlink:href="#jf4"/>
  <use x="1417.1" y="701.3" xlink:href="#jf4"/>
  <use x="1429" y="701.3" xlink:href="#jf4"/>
</g>
<g id="k5">
  <use x="1405.2" y="701.3" xlink:href="#jf5"/>
  <use x="1417.1" y="701.3" xlink:href="#jf5"/>
  <use x="1429" y="701.3" xlink:href="#jf5"/>
</g>
<g id="k6">
  <use x="1405.2" y="701.3" xlink:href="#jf6"/>
  <use x="1417.1" y="701.3" xlink:href="#jf6"/>
  <use x="1429" y="701.3" xlink:href="#jf6"/>
</g>
<g id="k7">
  <use x="1405.2" y="701.3" xlink:href="#jf7"/>
  <use x="1417.1" y="701.3" xlink:href="#jf7"/>
  <use x="1429" y="701.3" xlink:href="#jf7"/>
</g>
<g id="k8">
  <use x="1405.2" y="701.3" xlink:href="#jf8"/>
  <use x="1417.1" y="701.3" xlink:href="#jf8"/>
  <use x="1429" y="701.3" xlink:href="#jf8"/>
</g>
<g id="k9">
  <use x="1405.2" y="701.3" xlink:href="#jf9"/>
  <use x="1417.1" y="701.3" xlink:href="#jf9"/>
  <use x="1429" y="701.3" xlink:href="#jf9"/>
</g>
<g id="k10">
  <use x="1405.2" y="701.3" xlink:href="#jf10"/>
  <use x="1417.1" y="701.3" xlink:href="#jf10"/>
  <use x="1429" y="701.3" xlink:href="#jf10"/>
</g>
<g id="k11">
  <use x="1405.2" y="701.3" xlink:href="#jf11"/>
  <use x="1417.1" y="701.3" xlink:href="#jf11"/>
  <use x="1429" y="701.3" xlink:href="#jf11"/>
</g>
</g>

<style>
/* <![CDATA[ */

#a1 {animation-name: a1}
#a2 {animation-name: a2}
#a3 {animation-name: a3}
#a4 {animation-name: a4}
#a5 {animation-name: a5}
#a6 {animation-name: a6}
#a7 {animation-name: a7}
#a8 {animation-name: a8}
#a9 {animation-name: a9}
#a10 {animation-name: a10}

@keyframes a1 {0.00%{visibility: visible} 10.00%{visibility: hidden}}
@keyframes a2 {10.00%{visibility: visible} 20.00%{visibility: hidden}}
@keyframes a3 {20.00%{visibility: visible} 30.00%{visibility: hidden}}
@keyframes a4 {30.00%{visibility: visible} 40.00%{visibility: hidden}}
@keyframes a5 {40.00%{visibility: visible} 50.00%{visibility: hidden}}
@keyframes a6 {50.00%{visibility: visible} 60.00%{visibility: hidden}}
@keyframes a7 {60.00%{visibility: visible} 70.00%{visibility: hidden}}
@keyframes a8 {70.00%{visibility: visible} 80.00%{visibility: hidden}}
@keyframes a9 {80.00%{visibility: visible} 90.00%{visibility: hidden}}
@keyframes a10 {90.00%{visibility: visible} 100.00%{visibility: hidden}}

#b1 {animation-name: b1}
#b2 {animation-name: b2}
#b3 {animation-name: b3}
#b4 {animation-name: b4}

@keyframes b1 {0.00%{visibility: visible} 25.00%{visibility: hidden}}
@keyframes b2 {25.00%{visibility: visible} 50.00%{visibility: hidden}}
@keyframes b3 {50.00%{visibility: visible} 75.00%{visibility: hidden}}
@keyframes b4 {75.00%{visibility: visible} 100.00%{visibility: hidden}}

#c1 {animation-name: c1}
#c2 {animation-name: c2}
#c3 {animation-name: c3}
#c4 {animation-name: c4}
#c5 {animation-name: c5}
#c6 {animation-name: c6}
#c7 {animation-name: c7}
#c8 {animation-name: c8}

@keyframes c1 {0.00%{visibility: visible} 12.50%{visibility: hidden}}
@keyframes c2 {12.50%{visibility: visible} 25.00%{visibility: hidden}}
@keyframes c3 {25.00%{visibility: visible} 37.50%{visibility: hidden}}
@keyframes c4 {37.50%{visibility: visible} 50.00%{visibility: hidden}}
@keyframes c5 {50.00%{visibility: visible} 62.50%{visibility: hidden}}
@keyframes c6 {62.50%{visibility: visible} 75.00%{visibility: hidden}}
@keyframes c7 {75.00%{visibility: visible} 87.50%{visibility: hidden}}
@keyframes c8 {87.50%{visibility: visible} 100.00%{visibility: hidden}}

#d1, #e1 {animation-name: d1}
#d2, #e2 {animation-name: d2}
#d3, #e3 {animation-name: d3}
#d4, #e4 {animation-name: d4}
#d5, #e5 {animation-name: d5}
#d6, #e6 {animation-name: d6}
#d7, #e7 {animation-name: d7}
#d8, #e8 {animation-name: d8}
#d9, #e9 {animation-name: d9}
#d10, #e10 {animation-name: d10}
#d11, #e11 {animation-name: d11}
#d12, #e12 {animation-name: d12}
#d13, #e13 {animation-name: d13}
#d14, #e14 {animation-name: d14}
#d15, #e15 {animation-name: d15}
#d16, #e16 {animation-name: d16}

@keyframes d1 {0.00%{visibility: visible} 6.25%{visibility: hidden}}
@keyframes d2 {6.25%{visibility: visible} 12.50%{visibility: hidden}}
@keyframes d3 {12.50%{visibility: visible} 18.75%{visibility: hidden}}
@keyframes d4 {18.75%{visibility: visible} 25.00%{visibility: hidden}}
@keyframes d5 {25.00%{visibility: visible} 31.25%{visibility: hidden}}
@keyframes d6 {31.25%{visibility: visible} 37.50%{visibility: hidden}}
@keyframes d7 {37.50%{visibility: visible} 43.75%{visibility: hidden}}
@keyframes d8 {43.75%{visibility: visible} 50.00%{visibility: hidden}}
@keyframes d9 {50.00%{visibility: visible} 56.25%{visibility: hidden}}
@keyframes d10 {56.25%{visibility: visible} 62.50%{visibility: hidden}}
@keyframes d11 {62.50%{visibility: visible} 68.75%{visibility: hidden}}
@keyframes d12 {68.75%{visibility: visible} 75.00%{visibility: hidden}}
@keyframes d13 {75.00%{visibility: visible} 81.25%{visibility: hidden}}
@keyframes d14 {81.25%{visibility: visible} 87.50%{visibility: hidden}}
@keyframes d15 {87.50%{visibility: visible} 93.75%{visibility: hidden}}
@keyframes d16 {93.75%{visibility: visible} 100.00%{visibility: hidden}}

#j1 {animation-name: j1}
#j2 {animation-name: j2}
#j3 {animation-name: j3}
#j4 {animation-name: j4}
#j5 {animation-name: j5}
#j6 {animation-name: j6}
#j7 {animation-name: j7}
#j8 {animation-name: j8}

@keyframes j1 {0.00%{visibility: visible} 12.50%{visibility: hidden}}
@keyframes j2 {12.50%{visibility: visible} 25.00%{visibility: hidden}}
@keyframes j3 {25.00%{visibility: visible} 37.50%{visibility: hidden}}
@keyframes j4 {37.50%{visibility: visible} 50.00%{visibility: hidden}}
@keyframes j5 {50.00%{visibility: visible} 62.50%{visibility: hidden}}
@keyframes j6 {62.50%{visibility: visible} 75.00%{visibility: hidden}}
@keyframes j7 {75.00%{visibility: visible} 87.50%{visibility: hidden}}
@keyframes j8 {87.50%{visibility: visible} 100.00%{visibility: hidden}}

#k1 {animation-name: k1}
#k2 {animation-name: k2}
#k3 {animation-name: k3}
#k4 {animation-name: k4}
#k5 {animation-name: k5}
#k6 {animation-name: k6}
#k7 {animation-name: k7}
#k8 {animation-name: k8}
#k9 {animation-name: k9}
#k10 {animation-name: k10}
#k11 {animation-name: k11}

@keyframes k1 {0.00%{visibility: visible} 9.09%{visibility: hidden}}
@keyframes k2 {9.09%{visibility: visible} 18.18%{visibility: hidden}}
@keyframes k3 {18.18%{visibility: visible} 27.27%{visibility: hidden}}
@keyframes k4 {27.27%{visibility: visible} 36.36%{visibility: hidden}}
@keyframes k5 {36.36%{visibility: visible} 45.45%{visibility: hidden}}
@keyframes k6 {45.45%{visibility: visible} 54.55%{visibility: hidden}}
@keyframes k7 {54.55%{visibility: visible} 63.64%{visibility: hidden}}
@keyframes k8 {63.64%{visibility: visible} 72.73%{visibility: hidden}}
@keyframes k9 {72.73%{visibility: visible} 81.82%{visibility: hidden}}
@keyframes k10 {81.82%{visibility: visible} 90.91%{visibility: hidden}}
@keyframes k11 {90.91%{visibility: visible} 100.00%{visibility: hidden}}

/* ]]> */
</style>

</svg>
